%TF.GenerationSoftware,KiCad,Pcbnew,8.0.1*%
%TF.CreationDate,2024-05-19T22:49:13-04:00*%
%TF.ProjectId,stepstick-breakout,73746570-7374-4696-936b-2d627265616b,rev?*%
%TF.SameCoordinates,Original*%
%TF.FileFunction,Copper,L2,Bot*%
%TF.FilePolarity,Positive*%
%FSLAX46Y46*%
G04 Gerber Fmt 4.6, Leading zero omitted, Abs format (unit mm)*
G04 Created by KiCad (PCBNEW 8.0.1) date 2024-05-19 22:49:13*
%MOMM*%
%LPD*%
G01*
G04 APERTURE LIST*
G04 Aperture macros list*
%AMRoundRect*
0 Rectangle with rounded corners*
0 $1 Rounding radius*
0 $2 $3 $4 $5 $6 $7 $8 $9 X,Y pos of 4 corners*
0 Add a 4 corners polygon primitive as box body*
4,1,4,$2,$3,$4,$5,$6,$7,$8,$9,$2,$3,0*
0 Add four circle primitives for the rounded corners*
1,1,$1+$1,$2,$3*
1,1,$1+$1,$4,$5*
1,1,$1+$1,$6,$7*
1,1,$1+$1,$8,$9*
0 Add four rect primitives between the rounded corners*
20,1,$1+$1,$2,$3,$4,$5,0*
20,1,$1+$1,$4,$5,$6,$7,0*
20,1,$1+$1,$6,$7,$8,$9,0*
20,1,$1+$1,$8,$9,$2,$3,0*%
G04 Aperture macros list end*
%TA.AperFunction,Conductor*%
%ADD10C,0.200000*%
%TD*%
%TA.AperFunction,ComponentPad*%
%ADD11RoundRect,0.250000X-0.725000X0.600000X-0.725000X-0.600000X0.725000X-0.600000X0.725000X0.600000X0*%
%TD*%
%TA.AperFunction,ComponentPad*%
%ADD12O,1.950000X1.700000*%
%TD*%
%TA.AperFunction,ComponentPad*%
%ADD13C,1.700000*%
%TD*%
%TA.AperFunction,ComponentPad*%
%ADD14O,1.700000X1.700000*%
%TD*%
%TA.AperFunction,ComponentPad*%
%ADD15R,1.700000X1.700000*%
%TD*%
G04 APERTURE END LIST*
%TO.N,/GND*%
D10*
X109474000Y-73914000D02*
X114046000Y-73914000D01*
X114046000Y-78486000D01*
X109474000Y-78486000D01*
X109474000Y-73914000D01*
%TA.AperFunction,Conductor*%
G36*
X109474000Y-73914000D02*
G01*
X114046000Y-73914000D01*
X114046000Y-78486000D01*
X109474000Y-78486000D01*
X109474000Y-73914000D01*
G37*
%TD.AperFunction*%
%TD*%
D11*
%TO.P,J3,1,Pin_1*%
%TO.N,/Dir*%
X107950000Y-60960000D03*
D12*
%TO.P,J3,2,Pin_2*%
%TO.N,/Step*%
X107950000Y-63460000D03*
%TO.P,J3,3,Pin_3*%
%TO.N,/En*%
X107950000Y-65960000D03*
%TO.P,J3,4,Pin_4*%
%TO.N,/DIAG*%
X107950000Y-68460000D03*
%TO.P,J3,5,Pin_5*%
%TO.N,/Vm*%
X107950000Y-70960000D03*
%TO.P,J3,6,Pin_6*%
%TO.N,/GND*%
X107950000Y-73460000D03*
%TD*%
D13*
%TO.P,J4,1,Pin_1*%
%TO.N,/DIAG*%
X105410000Y-77470000D03*
D14*
%TO.P,J4,2,Pin_2*%
%TO.N,/INDEX*%
X107950000Y-77470000D03*
%TD*%
%TO.P,J2,8,Pin_8*%
%TO.N,/En*%
X102870000Y-77470000D03*
%TO.P,J2,7,Pin_7*%
%TO.N,/MS2*%
X102870000Y-74930000D03*
%TO.P,J2,6,Pin_6*%
%TO.N,/MS1*%
X102870000Y-72390000D03*
%TO.P,J2,5,Pin_5*%
%TO.N,/SPREAD*%
X102870000Y-69850000D03*
%TO.P,J2,4,Pin_4*%
%TO.N,/PDN{slash}UART 2*%
X102870000Y-67310000D03*
%TO.P,J2,3,Pin_3*%
%TO.N,/PDN{slash}UART 1*%
X102870000Y-64770000D03*
%TO.P,J2,2,Pin_2*%
%TO.N,/Step*%
X102870000Y-62230000D03*
D15*
%TO.P,J2,1,Pin_1*%
%TO.N,/Dir*%
X102870000Y-59690000D03*
%TD*%
D14*
%TO.P,J1,8,Pin_8*%
%TO.N,/Vm*%
X115570000Y-77470000D03*
%TO.P,J1,7,Pin_7*%
%TO.N,/GND*%
X115570000Y-74930000D03*
%TO.P,J1,6,Pin_6*%
%TO.N,/Motor 2-B*%
X115570000Y-72390000D03*
%TO.P,J1,5,Pin_5*%
%TO.N,/Motor 2-A*%
X115570000Y-69850000D03*
%TO.P,J1,4,Pin_4*%
%TO.N,/Motor 1-A*%
X115570000Y-67310000D03*
%TO.P,J1,3,Pin_3*%
%TO.N,/Motor 1-B*%
X115570000Y-64770000D03*
%TO.P,J1,2,Pin_2*%
%TO.N,/Vio*%
X115570000Y-62230000D03*
D13*
%TO.P,J1,1,Pin_1*%
%TO.N,/GND*%
X115570000Y-59690000D03*
%TD*%
%TA.AperFunction,Conductor*%
%TO.N,/GND*%
G36*
X114299898Y-58940502D02*
G01*
X114346391Y-58994158D01*
X114356495Y-59064432D01*
X114347164Y-59097114D01*
X114281179Y-59247543D01*
X114281176Y-59247550D01*
X114225932Y-59465707D01*
X114207346Y-59690000D01*
X114225932Y-59914292D01*
X114281176Y-60132449D01*
X114281179Y-60132456D01*
X114371580Y-60338548D01*
X114375948Y-60345235D01*
X114375948Y-60345236D01*
X115070000Y-59651184D01*
X115070000Y-59755826D01*
X115104075Y-59882993D01*
X115169901Y-59997007D01*
X115262993Y-60090099D01*
X115377007Y-60155925D01*
X115504174Y-60190000D01*
X115608813Y-60190000D01*
X114917711Y-60881101D01*
X114917711Y-60881103D01*
X114989552Y-60919982D01*
X115039942Y-60969995D01*
X115055294Y-61039312D01*
X115030733Y-61105925D01*
X114982835Y-61144988D01*
X114951900Y-61159413D01*
X114775386Y-61283010D01*
X114775380Y-61283015D01*
X114623015Y-61435380D01*
X114623010Y-61435386D01*
X114499416Y-61611897D01*
X114408349Y-61807190D01*
X114408347Y-61807195D01*
X114352577Y-62015331D01*
X114333796Y-62230000D01*
X114352577Y-62444668D01*
X114408347Y-62652804D01*
X114408349Y-62652809D01*
X114499416Y-62848102D01*
X114596859Y-62987266D01*
X114623013Y-63024617D01*
X114775383Y-63176987D01*
X114951898Y-63300584D01*
X115085925Y-63363082D01*
X115134654Y-63385805D01*
X115187939Y-63432723D01*
X115207400Y-63501000D01*
X115186858Y-63568960D01*
X115134654Y-63614195D01*
X114951897Y-63699416D01*
X114775386Y-63823010D01*
X114775380Y-63823015D01*
X114623015Y-63975380D01*
X114623010Y-63975386D01*
X114499416Y-64151897D01*
X114408349Y-64347190D01*
X114408347Y-64347195D01*
X114352577Y-64555331D01*
X114333796Y-64770000D01*
X114352577Y-64984668D01*
X114408347Y-65192804D01*
X114408349Y-65192809D01*
X114499416Y-65388102D01*
X114568855Y-65487272D01*
X114623013Y-65564617D01*
X114775383Y-65716987D01*
X114951898Y-65840584D01*
X115116085Y-65917146D01*
X115134654Y-65925805D01*
X115187939Y-65972723D01*
X115207400Y-66041000D01*
X115186858Y-66108960D01*
X115134654Y-66154195D01*
X114951897Y-66239416D01*
X114775386Y-66363010D01*
X114775380Y-66363015D01*
X114623015Y-66515380D01*
X114623010Y-66515386D01*
X114499416Y-66691897D01*
X114408349Y-66887190D01*
X114408347Y-66887195D01*
X114352577Y-67095331D01*
X114333796Y-67310000D01*
X114352577Y-67524668D01*
X114408347Y-67732804D01*
X114408348Y-67732807D01*
X114499416Y-67928102D01*
X114623013Y-68104617D01*
X114775383Y-68256987D01*
X114951898Y-68380584D01*
X115116085Y-68457146D01*
X115134654Y-68465805D01*
X115187939Y-68512723D01*
X115207400Y-68581000D01*
X115186858Y-68648960D01*
X115134654Y-68694195D01*
X114951897Y-68779416D01*
X114775386Y-68903010D01*
X114775380Y-68903015D01*
X114623015Y-69055380D01*
X114623010Y-69055386D01*
X114499416Y-69231897D01*
X114408349Y-69427190D01*
X114408347Y-69427195D01*
X114352577Y-69635331D01*
X114333796Y-69850000D01*
X114352577Y-70064668D01*
X114408347Y-70272804D01*
X114408348Y-70272807D01*
X114499416Y-70468102D01*
X114623013Y-70644617D01*
X114775383Y-70796987D01*
X114951898Y-70920584D01*
X115116085Y-70997146D01*
X115134654Y-71005805D01*
X115187939Y-71052723D01*
X115207400Y-71121000D01*
X115186858Y-71188960D01*
X115134654Y-71234195D01*
X114951897Y-71319416D01*
X114775386Y-71443010D01*
X114775380Y-71443015D01*
X114623015Y-71595380D01*
X114623010Y-71595386D01*
X114499416Y-71771897D01*
X114408349Y-71967190D01*
X114408347Y-71967195D01*
X114352577Y-72175331D01*
X114333796Y-72390000D01*
X114352577Y-72604668D01*
X114408347Y-72812804D01*
X114408349Y-72812809D01*
X114499416Y-73008102D01*
X114549058Y-73078999D01*
X114623013Y-73184617D01*
X114775383Y-73336987D01*
X114951898Y-73460584D01*
X114975416Y-73471550D01*
X114982832Y-73475009D01*
X115036117Y-73521927D01*
X115055578Y-73590204D01*
X115035036Y-73658164D01*
X114989552Y-73700017D01*
X114824704Y-73789228D01*
X114824698Y-73789232D01*
X114647097Y-73927465D01*
X114494674Y-74093041D01*
X114371580Y-74281451D01*
X114281179Y-74487543D01*
X114281176Y-74487550D01*
X114265615Y-74548999D01*
X114265616Y-74549000D01*
X115243894Y-74549000D01*
X115169901Y-74622993D01*
X115104075Y-74737007D01*
X115070000Y-74864174D01*
X115070000Y-74995826D01*
X115104075Y-75122993D01*
X115169901Y-75237007D01*
X115243894Y-75311000D01*
X114265616Y-75311000D01*
X114281176Y-75372449D01*
X114281179Y-75372456D01*
X114371580Y-75578548D01*
X114494674Y-75766958D01*
X114647097Y-75932534D01*
X114824698Y-76070767D01*
X114824699Y-76070768D01*
X114989551Y-76159981D01*
X115039942Y-76209994D01*
X115055294Y-76279311D01*
X115030733Y-76345924D01*
X114982835Y-76384988D01*
X114951900Y-76399413D01*
X114775386Y-76523010D01*
X114775380Y-76523015D01*
X114623015Y-76675380D01*
X114623010Y-76675386D01*
X114499416Y-76851897D01*
X114408349Y-77047190D01*
X114408347Y-77047195D01*
X114352577Y-77255331D01*
X114333796Y-77470000D01*
X114352577Y-77684668D01*
X114408347Y-77892804D01*
X114408349Y-77892809D01*
X114486428Y-78060250D01*
X114497089Y-78130442D01*
X114468109Y-78195254D01*
X114408689Y-78234111D01*
X114372233Y-78239500D01*
X109147767Y-78239500D01*
X109079646Y-78219498D01*
X109033153Y-78165842D01*
X109023049Y-78095568D01*
X109033572Y-78060250D01*
X109052244Y-78020205D01*
X109111652Y-77892807D01*
X109167423Y-77684665D01*
X109186204Y-77470000D01*
X109167423Y-77255335D01*
X109111652Y-77047193D01*
X109020584Y-76851898D01*
X108896987Y-76675383D01*
X108744617Y-76523013D01*
X108568102Y-76399416D01*
X108372807Y-76308348D01*
X108372805Y-76308347D01*
X108372804Y-76308347D01*
X108164668Y-76252577D01*
X107950000Y-76233796D01*
X107735331Y-76252577D01*
X107527195Y-76308347D01*
X107527190Y-76308349D01*
X107331897Y-76399416D01*
X107155386Y-76523010D01*
X107155380Y-76523015D01*
X107003015Y-76675380D01*
X107003010Y-76675386D01*
X106879416Y-76851897D01*
X106794195Y-77034654D01*
X106747277Y-77087939D01*
X106679000Y-77107400D01*
X106611040Y-77086858D01*
X106565805Y-77034654D01*
X106557146Y-77016085D01*
X106480584Y-76851898D01*
X106356987Y-76675383D01*
X106204617Y-76523013D01*
X106028102Y-76399416D01*
X105832807Y-76308348D01*
X105832805Y-76308347D01*
X105832804Y-76308347D01*
X105624668Y-76252577D01*
X105410000Y-76233796D01*
X105195331Y-76252577D01*
X104987195Y-76308347D01*
X104987190Y-76308349D01*
X104791897Y-76399416D01*
X104615386Y-76523010D01*
X104615380Y-76523015D01*
X104463015Y-76675380D01*
X104463010Y-76675386D01*
X104339416Y-76851897D01*
X104254195Y-77034654D01*
X104207277Y-77087939D01*
X104139000Y-77107400D01*
X104071040Y-77086858D01*
X104025805Y-77034654D01*
X104017146Y-77016085D01*
X103940584Y-76851898D01*
X103816987Y-76675383D01*
X103664617Y-76523013D01*
X103488102Y-76399416D01*
X103305344Y-76314194D01*
X103252060Y-76267278D01*
X103232599Y-76199000D01*
X103253141Y-76131040D01*
X103305343Y-76085805D01*
X103488102Y-76000584D01*
X103664617Y-75876987D01*
X103816987Y-75724617D01*
X103940584Y-75548102D01*
X104031652Y-75352807D01*
X104087423Y-75144665D01*
X104106204Y-74930000D01*
X104087423Y-74715335D01*
X104031652Y-74507193D01*
X103940584Y-74311898D01*
X103816987Y-74135383D01*
X103664617Y-73983013D01*
X103488102Y-73859416D01*
X103448609Y-73841000D01*
X106520909Y-73841000D01*
X106566490Y-73981286D01*
X106566493Y-73981292D01*
X106663536Y-74171750D01*
X106789177Y-74344679D01*
X106940320Y-74495822D01*
X107113249Y-74621463D01*
X107303707Y-74718506D01*
X107303713Y-74718509D01*
X107507003Y-74784561D01*
X107569000Y-74794380D01*
X107569000Y-73841000D01*
X106520909Y-73841000D01*
X103448609Y-73841000D01*
X103305344Y-73774194D01*
X103252060Y-73727278D01*
X103232599Y-73659000D01*
X103253141Y-73591040D01*
X103305343Y-73545805D01*
X103488102Y-73460584D01*
X103664617Y-73336987D01*
X103816987Y-73184617D01*
X103890941Y-73078999D01*
X106520908Y-73078999D01*
X106520909Y-73079000D01*
X107659911Y-73079000D01*
X107658343Y-73079905D01*
X107569905Y-73168343D01*
X107507370Y-73276657D01*
X107475000Y-73397465D01*
X107475000Y-73522535D01*
X107507370Y-73643343D01*
X107569905Y-73751657D01*
X107658343Y-73840095D01*
X107766657Y-73902630D01*
X107887465Y-73935000D01*
X108012535Y-73935000D01*
X108133343Y-73902630D01*
X108240089Y-73841000D01*
X108331000Y-73841000D01*
X108331000Y-74794379D01*
X108392996Y-74784561D01*
X108596286Y-74718509D01*
X108596292Y-74718506D01*
X108786750Y-74621463D01*
X108959679Y-74495822D01*
X109110822Y-74344679D01*
X109236463Y-74171750D01*
X109333506Y-73981292D01*
X109333509Y-73981286D01*
X109379091Y-73841000D01*
X108331000Y-73841000D01*
X108240089Y-73841000D01*
X108241657Y-73840095D01*
X108330095Y-73751657D01*
X108392630Y-73643343D01*
X108425000Y-73522535D01*
X108425000Y-73397465D01*
X108392630Y-73276657D01*
X108330095Y-73168343D01*
X108241657Y-73079905D01*
X108240089Y-73079000D01*
X109379091Y-73079000D01*
X109379091Y-73078999D01*
X109333509Y-72938713D01*
X109333506Y-72938707D01*
X109236463Y-72748249D01*
X109110822Y-72575320D01*
X108959679Y-72424177D01*
X108786749Y-72298535D01*
X108694004Y-72251279D01*
X108642389Y-72202530D01*
X108625323Y-72133615D01*
X108648224Y-72066414D01*
X108694004Y-72026746D01*
X108720447Y-72013273D01*
X108877268Y-71899336D01*
X109014336Y-71762268D01*
X109128273Y-71605447D01*
X109216276Y-71432732D01*
X109276176Y-71248377D01*
X109306500Y-71056921D01*
X109306500Y-70863079D01*
X109276176Y-70671623D01*
X109216276Y-70487268D01*
X109128273Y-70314553D01*
X109014336Y-70157732D01*
X109014333Y-70157729D01*
X109014331Y-70157726D01*
X108877273Y-70020668D01*
X108877270Y-70020666D01*
X108877268Y-70020664D01*
X108720447Y-69906727D01*
X108554682Y-69822265D01*
X108503069Y-69773519D01*
X108486003Y-69704604D01*
X108508904Y-69637402D01*
X108554681Y-69597734D01*
X108720447Y-69513273D01*
X108877268Y-69399336D01*
X109014336Y-69262268D01*
X109128273Y-69105447D01*
X109216276Y-68932732D01*
X109276176Y-68748377D01*
X109306500Y-68556921D01*
X109306500Y-68363079D01*
X109276176Y-68171623D01*
X109216276Y-67987268D01*
X109128273Y-67814553D01*
X109014336Y-67657732D01*
X109014333Y-67657729D01*
X109014331Y-67657726D01*
X108877273Y-67520668D01*
X108877270Y-67520666D01*
X108877268Y-67520664D01*
X108720447Y-67406727D01*
X108554682Y-67322265D01*
X108503069Y-67273519D01*
X108486003Y-67204604D01*
X108508904Y-67137402D01*
X108554681Y-67097734D01*
X108720447Y-67013273D01*
X108877268Y-66899336D01*
X109014336Y-66762268D01*
X109128273Y-66605447D01*
X109216276Y-66432732D01*
X109276176Y-66248377D01*
X109306500Y-66056921D01*
X109306500Y-65863079D01*
X109276176Y-65671623D01*
X109216276Y-65487268D01*
X109128273Y-65314553D01*
X109014336Y-65157732D01*
X109014333Y-65157729D01*
X109014331Y-65157726D01*
X108877273Y-65020668D01*
X108877270Y-65020666D01*
X108877268Y-65020664D01*
X108720447Y-64906727D01*
X108554682Y-64822265D01*
X108503069Y-64773519D01*
X108486003Y-64704604D01*
X108508904Y-64637402D01*
X108554681Y-64597734D01*
X108720447Y-64513273D01*
X108877268Y-64399336D01*
X109014336Y-64262268D01*
X109128273Y-64105447D01*
X109216276Y-63932732D01*
X109276176Y-63748377D01*
X109306500Y-63556921D01*
X109306500Y-63363079D01*
X109276176Y-63171623D01*
X109216276Y-62987268D01*
X109128273Y-62814553D01*
X109014336Y-62657732D01*
X109014333Y-62657729D01*
X109014331Y-62657726D01*
X108877273Y-62520668D01*
X108877270Y-62520666D01*
X108877269Y-62520665D01*
X108877268Y-62520664D01*
X108729600Y-62413377D01*
X108686246Y-62357155D01*
X108680171Y-62286419D01*
X108713302Y-62223627D01*
X108768508Y-62190444D01*
X108774572Y-62188682D01*
X108774574Y-62188682D01*
X108927792Y-62144168D01*
X108927794Y-62144166D01*
X108927796Y-62144166D01*
X109065125Y-62062950D01*
X109065124Y-62062950D01*
X109065127Y-62062949D01*
X109177949Y-61950127D01*
X109259168Y-61812792D01*
X109303682Y-61659574D01*
X109304997Y-61642865D01*
X109306500Y-61623778D01*
X109306500Y-60296221D01*
X109303682Y-60260432D01*
X109303682Y-60260426D01*
X109259168Y-60107208D01*
X109259166Y-60107206D01*
X109259166Y-60107203D01*
X109177950Y-59969874D01*
X109177944Y-59969867D01*
X109065132Y-59857055D01*
X109065125Y-59857049D01*
X108927796Y-59775833D01*
X108774579Y-59731319D01*
X108774575Y-59731318D01*
X108774574Y-59731318D01*
X108774572Y-59731317D01*
X108774567Y-59731317D01*
X108738778Y-59728500D01*
X108738770Y-59728500D01*
X107161230Y-59728500D01*
X107161222Y-59728500D01*
X107125432Y-59731317D01*
X107125420Y-59731319D01*
X106972203Y-59775833D01*
X106834874Y-59857049D01*
X106834867Y-59857055D01*
X106722055Y-59969867D01*
X106722049Y-59969874D01*
X106640833Y-60107203D01*
X106596319Y-60260420D01*
X106596317Y-60260432D01*
X106593500Y-60296221D01*
X106593500Y-61623778D01*
X106596317Y-61659567D01*
X106596319Y-61659579D01*
X106640833Y-61812796D01*
X106722049Y-61950125D01*
X106722055Y-61950132D01*
X106834867Y-62062944D01*
X106834874Y-62062950D01*
X106972203Y-62144166D01*
X106972206Y-62144166D01*
X106972208Y-62144168D01*
X107125426Y-62188682D01*
X107131491Y-62190444D01*
X107191327Y-62228657D01*
X107221004Y-62293154D01*
X107211101Y-62363456D01*
X107170399Y-62413377D01*
X107022729Y-62520665D01*
X106885668Y-62657726D01*
X106885666Y-62657729D01*
X106771729Y-62814549D01*
X106683725Y-62987266D01*
X106683722Y-62987272D01*
X106623825Y-63171617D01*
X106623824Y-63171622D01*
X106623824Y-63171623D01*
X106593500Y-63363079D01*
X106593500Y-63556921D01*
X106623824Y-63748377D01*
X106623825Y-63748382D01*
X106648074Y-63823013D01*
X106683724Y-63932732D01*
X106771727Y-64105447D01*
X106885664Y-64262268D01*
X106885666Y-64262270D01*
X106885668Y-64262273D01*
X107022726Y-64399331D01*
X107022729Y-64399333D01*
X107022732Y-64399336D01*
X107179553Y-64513273D01*
X107345315Y-64597733D01*
X107396930Y-64646482D01*
X107413996Y-64715396D01*
X107391095Y-64782598D01*
X107345315Y-64822266D01*
X107200955Y-64895821D01*
X107179549Y-64906729D01*
X107022729Y-65020666D01*
X107022726Y-65020668D01*
X106885668Y-65157726D01*
X106885666Y-65157729D01*
X106771729Y-65314549D01*
X106683725Y-65487266D01*
X106683722Y-65487272D01*
X106623825Y-65671617D01*
X106623824Y-65671622D01*
X106623824Y-65671623D01*
X106593500Y-65863079D01*
X106593500Y-66056921D01*
X106607981Y-66148348D01*
X106623825Y-66248382D01*
X106683722Y-66432727D01*
X106683724Y-66432732D01*
X106771727Y-66605447D01*
X106885664Y-66762268D01*
X106885666Y-66762270D01*
X106885668Y-66762273D01*
X107022726Y-66899331D01*
X107022729Y-66899333D01*
X107022732Y-66899336D01*
X107179553Y-67013273D01*
X107345315Y-67097733D01*
X107396930Y-67146482D01*
X107413996Y-67215396D01*
X107391095Y-67282598D01*
X107345315Y-67322266D01*
X107200955Y-67395821D01*
X107179549Y-67406729D01*
X107022729Y-67520666D01*
X107022726Y-67520668D01*
X106885668Y-67657726D01*
X106885666Y-67657729D01*
X106771729Y-67814549D01*
X106683725Y-67987266D01*
X106683722Y-67987272D01*
X106623825Y-68171617D01*
X106623824Y-68171622D01*
X106623824Y-68171623D01*
X106593500Y-68363079D01*
X106593500Y-68556921D01*
X106623824Y-68748377D01*
X106623825Y-68748382D01*
X106674068Y-68903015D01*
X106683724Y-68932732D01*
X106771727Y-69105447D01*
X106885664Y-69262268D01*
X106885666Y-69262270D01*
X106885668Y-69262273D01*
X107022726Y-69399331D01*
X107022729Y-69399333D01*
X107022732Y-69399336D01*
X107179553Y-69513273D01*
X107345315Y-69597733D01*
X107396930Y-69646482D01*
X107413996Y-69715396D01*
X107391095Y-69782598D01*
X107345315Y-69822266D01*
X107290886Y-69850000D01*
X107179549Y-69906729D01*
X107022729Y-70020666D01*
X107022726Y-70020668D01*
X106885668Y-70157726D01*
X106885666Y-70157729D01*
X106771729Y-70314549D01*
X106683725Y-70487266D01*
X106683722Y-70487272D01*
X106623825Y-70671617D01*
X106623824Y-70671622D01*
X106623824Y-70671623D01*
X106593500Y-70863079D01*
X106593500Y-71056921D01*
X106620652Y-71228348D01*
X106623825Y-71248382D01*
X106683722Y-71432727D01*
X106683724Y-71432732D01*
X106771727Y-71605447D01*
X106885664Y-71762268D01*
X106885666Y-71762270D01*
X106885668Y-71762273D01*
X107022726Y-71899331D01*
X107022729Y-71899333D01*
X107022732Y-71899336D01*
X107116125Y-71967190D01*
X107179551Y-72013272D01*
X107179553Y-72013273D01*
X107205994Y-72026745D01*
X107257609Y-72075492D01*
X107274676Y-72144407D01*
X107251776Y-72211609D01*
X107205996Y-72251278D01*
X107113252Y-72298534D01*
X106940320Y-72424177D01*
X106789177Y-72575320D01*
X106663536Y-72748249D01*
X106566493Y-72938707D01*
X106566490Y-72938713D01*
X106520908Y-73078999D01*
X103890941Y-73078999D01*
X103940584Y-73008102D01*
X104031652Y-72812807D01*
X104087423Y-72604665D01*
X104106204Y-72390000D01*
X104087423Y-72175335D01*
X104031652Y-71967193D01*
X103940584Y-71771898D01*
X103816987Y-71595383D01*
X103664617Y-71443013D01*
X103488102Y-71319416D01*
X103305344Y-71234194D01*
X103252060Y-71187278D01*
X103232599Y-71119000D01*
X103253141Y-71051040D01*
X103305343Y-71005805D01*
X103488102Y-70920584D01*
X103664617Y-70796987D01*
X103816987Y-70644617D01*
X103940584Y-70468102D01*
X104031652Y-70272807D01*
X104087423Y-70064665D01*
X104106204Y-69850000D01*
X104087423Y-69635335D01*
X104031652Y-69427193D01*
X103940584Y-69231898D01*
X103816987Y-69055383D01*
X103664617Y-68903013D01*
X103488102Y-68779416D01*
X103305344Y-68694194D01*
X103252060Y-68647278D01*
X103232599Y-68579000D01*
X103253141Y-68511040D01*
X103305343Y-68465805D01*
X103488102Y-68380584D01*
X103664617Y-68256987D01*
X103816987Y-68104617D01*
X103940584Y-67928102D01*
X104031652Y-67732807D01*
X104087423Y-67524665D01*
X104106204Y-67310000D01*
X104087423Y-67095335D01*
X104031652Y-66887193D01*
X103940584Y-66691898D01*
X103816987Y-66515383D01*
X103664617Y-66363013D01*
X103488102Y-66239416D01*
X103305344Y-66154194D01*
X103252060Y-66107278D01*
X103232599Y-66039000D01*
X103253141Y-65971040D01*
X103305343Y-65925805D01*
X103488102Y-65840584D01*
X103664617Y-65716987D01*
X103816987Y-65564617D01*
X103940584Y-65388102D01*
X104031652Y-65192807D01*
X104087423Y-64984665D01*
X104106204Y-64770000D01*
X104087423Y-64555335D01*
X104031652Y-64347193D01*
X103940584Y-64151898D01*
X103816987Y-63975383D01*
X103664617Y-63823013D01*
X103488102Y-63699416D01*
X103305344Y-63614194D01*
X103252060Y-63567278D01*
X103232599Y-63499000D01*
X103253141Y-63431040D01*
X103305343Y-63385805D01*
X103488102Y-63300584D01*
X103664617Y-63176987D01*
X103816987Y-63024617D01*
X103940584Y-62848102D01*
X104031652Y-62652807D01*
X104087423Y-62444665D01*
X104106204Y-62230000D01*
X104087423Y-62015335D01*
X104031652Y-61807193D01*
X103940584Y-61611898D01*
X103816987Y-61435383D01*
X103664617Y-61283013D01*
X103639499Y-61265425D01*
X103488099Y-61159413D01*
X103483338Y-61156665D01*
X103484682Y-61154336D01*
X103439796Y-61114923D01*
X103420242Y-61046672D01*
X103440691Y-60978685D01*
X103494651Y-60932545D01*
X103546239Y-60921500D01*
X103756200Y-60921500D01*
X103756206Y-60921500D01*
X103830361Y-60910696D01*
X103944746Y-60854776D01*
X104034776Y-60764746D01*
X104090696Y-60650361D01*
X104101500Y-60576206D01*
X104101500Y-59046500D01*
X104121502Y-58978379D01*
X104175158Y-58931886D01*
X104227500Y-58920500D01*
X114231777Y-58920500D01*
X114299898Y-58940502D01*
G37*
%TD.AperFunction*%
%TD*%
M02*
