%TF.GenerationSoftware,KiCad,Pcbnew,8.0.1*%
%TF.CreationDate,2024-05-19T23:11:23-04:00*%
%TF.ProjectId,stepstick-breakout,73746570-7374-4696-936b-2d627265616b,rev?*%
%TF.SameCoordinates,Original*%
%TF.FileFunction,Copper,L1,Top*%
%TF.FilePolarity,Positive*%
%FSLAX46Y46*%
G04 Gerber Fmt 4.6, Leading zero omitted, Abs format (unit mm)*
G04 Created by KiCad (PCBNEW 8.0.1) date 2024-05-19 23:11:23*
%MOMM*%
%LPD*%
G01*
G04 APERTURE LIST*
G04 Aperture macros list*
%AMRoundRect*
0 Rectangle with rounded corners*
0 $1 Rounding radius*
0 $2 $3 $4 $5 $6 $7 $8 $9 X,Y pos of 4 corners*
0 Add a 4 corners polygon primitive as box body*
4,1,4,$2,$3,$4,$5,$6,$7,$8,$9,$2,$3,0*
0 Add four circle primitives for the rounded corners*
1,1,$1+$1,$2,$3*
1,1,$1+$1,$4,$5*
1,1,$1+$1,$6,$7*
1,1,$1+$1,$8,$9*
0 Add four rect primitives between the rounded corners*
20,1,$1+$1,$2,$3,$4,$5,0*
20,1,$1+$1,$4,$5,$6,$7,0*
20,1,$1+$1,$6,$7,$8,$9,0*
20,1,$1+$1,$8,$9,$2,$3,0*%
G04 Aperture macros list end*
%TA.AperFunction,ComponentPad*%
%ADD10RoundRect,0.264706X-0.760294X0.635294X-0.760294X-0.635294X0.760294X-0.635294X0.760294X0.635294X0*%
%TD*%
%TA.AperFunction,ComponentPad*%
%ADD11O,2.000000X1.750000*%
%TD*%
%TA.AperFunction,ComponentPad*%
%ADD12O,1.950000X1.700000*%
%TD*%
%TA.AperFunction,ComponentPad*%
%ADD13O,2.050000X1.800000*%
%TD*%
%TA.AperFunction,ComponentPad*%
%ADD14C,1.700000*%
%TD*%
%TA.AperFunction,ComponentPad*%
%ADD15O,1.700000X1.700000*%
%TD*%
%TA.AperFunction,ComponentPad*%
%ADD16R,1.700000X1.700000*%
%TD*%
%TA.AperFunction,Conductor*%
%ADD17C,0.508000*%
%TD*%
%TA.AperFunction,Conductor*%
%ADD18C,0.762000*%
%TD*%
G04 APERTURE END LIST*
D10*
%TO.P,J3,1,Pin_1*%
%TO.N,/Dir*%
X107950000Y-60960000D03*
D11*
%TO.P,J3,2,Pin_2*%
%TO.N,/Step*%
X107950000Y-63460000D03*
D12*
%TO.P,J3,3,Pin_3*%
%TO.N,/En*%
X107950000Y-65960000D03*
%TO.P,J3,4,Pin_4*%
%TO.N,/DIAG*%
X107950000Y-68460000D03*
D11*
%TO.P,J3,5,Pin_5*%
%TO.N,/Vm*%
X107950000Y-70960000D03*
D13*
%TO.P,J3,6,Pin_6*%
%TO.N,/GND*%
X107950000Y-73460000D03*
%TD*%
D14*
%TO.P,J4,1,Pin_1*%
%TO.N,/DIAG*%
X105410000Y-77470000D03*
D15*
%TO.P,J4,2,Pin_2*%
%TO.N,/INDEX*%
X107950000Y-77470000D03*
%TD*%
%TO.P,J2,8,Pin_8*%
%TO.N,/En*%
X102870000Y-77470000D03*
%TO.P,J2,7,Pin_7*%
%TO.N,/MS2*%
X102870000Y-74930000D03*
%TO.P,J2,6,Pin_6*%
%TO.N,/MS1*%
X102870000Y-72390000D03*
%TO.P,J2,5,Pin_5*%
%TO.N,/SPREAD*%
X102870000Y-69850000D03*
%TO.P,J2,4,Pin_4*%
%TO.N,/PDN{slash}UART 2*%
X102870000Y-67310000D03*
%TO.P,J2,3,Pin_3*%
%TO.N,/PDN{slash}UART 1*%
X102870000Y-64770000D03*
%TO.P,J2,2,Pin_2*%
%TO.N,/Step*%
X102870000Y-62230000D03*
D16*
%TO.P,J2,1,Pin_1*%
%TO.N,/Dir*%
X102870000Y-59690000D03*
%TD*%
D15*
%TO.P,J1,8,Pin_8*%
%TO.N,/Vm*%
X115570000Y-77470000D03*
%TO.P,J1,7,Pin_7*%
%TO.N,/GND*%
X115570000Y-74930000D03*
%TO.P,J1,6,Pin_6*%
%TO.N,/Motor 2-B*%
X115570000Y-72390000D03*
%TO.P,J1,5,Pin_5*%
%TO.N,/Motor 2-A*%
X115570000Y-69850000D03*
%TO.P,J1,4,Pin_4*%
%TO.N,/Motor 1-A*%
X115570000Y-67310000D03*
%TO.P,J1,3,Pin_3*%
%TO.N,/Motor 1-B*%
X115570000Y-64770000D03*
%TO.P,J1,2,Pin_2*%
%TO.N,/Vio*%
X115570000Y-62230000D03*
D14*
%TO.P,J1,1,Pin_1*%
%TO.N,/GND*%
X115570000Y-59690000D03*
%TD*%
D17*
%TO.N,/Dir*%
X104775000Y-60960000D02*
X107950000Y-60960000D01*
X103505000Y-59690000D02*
X104775000Y-60960000D01*
X102870000Y-59690000D02*
X103505000Y-59690000D01*
%TO.N,/Step*%
X104735000Y-63460000D02*
X107950000Y-63460000D01*
X103505000Y-62230000D02*
X104735000Y-63460000D01*
X102870000Y-62230000D02*
X103505000Y-62230000D01*
%TO.N,/En*%
X104775000Y-69135000D02*
X107950000Y-65960000D01*
X104775000Y-75565000D02*
X104775000Y-69135000D01*
X102870000Y-77470000D02*
X104775000Y-75565000D01*
%TO.N,/DIAG*%
X106045000Y-70365000D02*
X107950000Y-68460000D01*
X106045000Y-76835000D02*
X106045000Y-70365000D01*
X105410000Y-77470000D02*
X106045000Y-76835000D01*
D18*
%TO.N,/Vm*%
X111760000Y-76200000D02*
X113030000Y-77470000D01*
X111760000Y-72390000D02*
X111760000Y-76200000D01*
X113030000Y-77470000D02*
X115570000Y-77470000D01*
X107950000Y-70960000D02*
X110330000Y-70960000D01*
X110330000Y-70960000D02*
X111760000Y-72390000D01*
%TD*%
%TA.AperFunction,Conductor*%
%TO.N,/Dir*%
G36*
X107094811Y-60086682D02*
G01*
X107942969Y-60951809D01*
X107946313Y-60960116D01*
X107942969Y-60968191D01*
X107094811Y-61833317D01*
X107086572Y-61836825D01*
X107080522Y-61835209D01*
X106030766Y-61217393D01*
X106025374Y-61210244D01*
X106025000Y-61207310D01*
X106025000Y-60712689D01*
X106028427Y-60704416D01*
X106030763Y-60702608D01*
X107080523Y-60084789D01*
X107089390Y-60083547D01*
X107094811Y-60086682D01*
G37*
%TD.AperFunction*%
%TD*%
%TA.AperFunction,Conductor*%
%TO.N,/Dir*%
G36*
X103726158Y-59201555D02*
G01*
X104060280Y-59686841D01*
X104495122Y-60318413D01*
X104496991Y-60327171D01*
X104493758Y-60333321D01*
X104145343Y-60681736D01*
X104137070Y-60685163D01*
X104135934Y-60685108D01*
X102661497Y-60541329D01*
X102653596Y-60537115D01*
X102650988Y-60528548D01*
X102651310Y-60526737D01*
X102868068Y-59693997D01*
X102873469Y-59686855D01*
X102873474Y-59686851D01*
X103710622Y-59198085D01*
X103719494Y-59196874D01*
X103726158Y-59201555D01*
G37*
%TD.AperFunction*%
%TD*%
%TA.AperFunction,Conductor*%
%TO.N,/Step*%
G36*
X107651934Y-62606401D02*
G01*
X107658114Y-62612881D01*
X107658259Y-62613278D01*
X107949678Y-63456177D01*
X107949678Y-63463823D01*
X107658259Y-64306721D01*
X107652317Y-64313420D01*
X107643378Y-64313956D01*
X107642981Y-64313811D01*
X106099293Y-63716892D01*
X106092813Y-63710712D01*
X106091813Y-63705979D01*
X106091813Y-63214020D01*
X106095240Y-63205747D01*
X106099290Y-63203108D01*
X107642981Y-62606188D01*
X107651934Y-62606401D01*
G37*
%TD.AperFunction*%
%TD*%
%TA.AperFunction,Conductor*%
%TO.N,/Step*%
G36*
X103478493Y-61638050D02*
G01*
X103479226Y-61638856D01*
X104458189Y-62822561D01*
X104460821Y-62831121D01*
X104457446Y-62838291D01*
X104109629Y-63186108D01*
X104101356Y-63189535D01*
X104100319Y-63189489D01*
X102880654Y-63080948D01*
X102872717Y-63076801D01*
X102869991Y-63069304D01*
X102869297Y-62234153D01*
X102872717Y-62225877D01*
X102872734Y-62225860D01*
X103461949Y-61638028D01*
X103470224Y-61634613D01*
X103478493Y-61638050D01*
G37*
%TD.AperFunction*%
%TD*%
%TA.AperFunction,Conductor*%
%TO.N,/En*%
G36*
X107945112Y-65958330D02*
G01*
X107952683Y-65963109D01*
X107953412Y-65964283D01*
X108367205Y-66727605D01*
X108368135Y-66736511D01*
X108362495Y-66743467D01*
X108361603Y-66743903D01*
X106883886Y-67389442D01*
X106874933Y-67389613D01*
X106870929Y-67386993D01*
X106522728Y-67038792D01*
X106519301Y-67030519D01*
X106520072Y-67026343D01*
X106987898Y-65803152D01*
X106994053Y-65796651D01*
X107000809Y-65795804D01*
X107945112Y-65958330D01*
G37*
%TD.AperFunction*%
%TD*%
%TA.AperFunction,Conductor*%
%TO.N,/En*%
G36*
X103898147Y-76093985D02*
G01*
X104246014Y-76441852D01*
X104249441Y-76450125D01*
X104248440Y-76454859D01*
X103659915Y-77784845D01*
X103653434Y-77791024D01*
X103644750Y-77790925D01*
X102873785Y-77472562D01*
X102867447Y-77466238D01*
X102549074Y-76695248D01*
X102549083Y-76686294D01*
X102555153Y-76680084D01*
X103885142Y-76091558D01*
X103894092Y-76091345D01*
X103898147Y-76093985D01*
G37*
%TD.AperFunction*%
%TD*%
%TA.AperFunction,Conductor*%
%TO.N,/DIAG*%
G36*
X107945112Y-68458330D02*
G01*
X107952683Y-68463109D01*
X107953412Y-68464283D01*
X108367205Y-69227605D01*
X108368135Y-69236511D01*
X108362495Y-69243467D01*
X108361603Y-69243903D01*
X106883886Y-69889442D01*
X106874933Y-69889613D01*
X106870929Y-69886993D01*
X106522728Y-69538792D01*
X106519301Y-69530519D01*
X106520072Y-69526343D01*
X106987898Y-68303152D01*
X106994053Y-68296651D01*
X107000809Y-68295804D01*
X107945112Y-68458330D01*
G37*
%TD.AperFunction*%
%TD*%
%TA.AperFunction,Conductor*%
%TO.N,/DIAG*%
G36*
X106295251Y-76036452D02*
G01*
X106298678Y-76044725D01*
X106298674Y-76045042D01*
X106260308Y-77458630D01*
X106256658Y-77466808D01*
X106248626Y-77470013D01*
X105414859Y-77470994D01*
X105406583Y-77467577D01*
X104817907Y-76877922D01*
X104814488Y-76869647D01*
X104817922Y-76861377D01*
X104818590Y-76860760D01*
X105787721Y-76035815D01*
X105795305Y-76033025D01*
X106286978Y-76033025D01*
X106295251Y-76036452D01*
G37*
%TD.AperFunction*%
%TD*%
%TA.AperFunction,Conductor*%
%TO.N,/Vm*%
G36*
X115243546Y-76688619D02*
G01*
X115248748Y-76694401D01*
X115569134Y-77465511D01*
X115569143Y-77474466D01*
X115569134Y-77474489D01*
X115254279Y-78232289D01*
X115247940Y-78238614D01*
X115243474Y-78239500D01*
X115192688Y-78239500D01*
X115189387Y-78239025D01*
X113878399Y-77853470D01*
X113871429Y-77847848D01*
X113870000Y-77842245D01*
X113870000Y-77097754D01*
X113873427Y-77089481D01*
X113878396Y-77086530D01*
X115234643Y-76687665D01*
X115243546Y-76688619D01*
G37*
%TD.AperFunction*%
%TD*%
%TA.AperFunction,Conductor*%
%TO.N,/Vm*%
G36*
X109799904Y-70576470D02*
G01*
X109806816Y-70582164D01*
X109808187Y-70587660D01*
X109808187Y-71332339D01*
X109804760Y-71340612D01*
X109799904Y-71343529D01*
X108256492Y-71814892D01*
X108247579Y-71814031D01*
X108242018Y-71807526D01*
X107950321Y-70963820D01*
X107950321Y-70956179D01*
X108242018Y-70112471D01*
X108247959Y-70105775D01*
X108256490Y-70105107D01*
X109799904Y-70576470D01*
G37*
%TD.AperFunction*%
%TD*%
M02*
