%TF.GenerationSoftware,KiCad,Pcbnew,8.0.1*%
%TF.CreationDate,2024-05-19T23:11:23-04:00*%
%TF.ProjectId,stepstick-breakout,73746570-7374-4696-936b-2d627265616b,rev?*%
%TF.SameCoordinates,Original*%
%TF.FileFunction,Legend,Bot*%
%TF.FilePolarity,Positive*%
%FSLAX46Y46*%
G04 Gerber Fmt 4.6, Leading zero omitted, Abs format (unit mm)*
G04 Created by KiCad (PCBNEW 8.0.1) date 2024-05-19 23:11:23*
%MOMM*%
%LPD*%
G01*
G04 APERTURE LIST*
%ADD10C,0.254000*%
%ADD11C,0.150000*%
%ADD12C,0.120000*%
G04 APERTURE END LIST*
D10*
G36*
X105831640Y-60674343D02*
G01*
X104799332Y-60674343D01*
X104799332Y-61432939D01*
X104974031Y-61432939D01*
X104974031Y-60881052D01*
X105196374Y-60881052D01*
X105196374Y-61394724D01*
X105371072Y-61394724D01*
X105371072Y-60881052D01*
X105656941Y-60881052D01*
X105656941Y-61452543D01*
X105831640Y-61452543D01*
X105831640Y-60674343D01*
G37*
G36*
X105831640Y-61620790D02*
G01*
X104799332Y-61620790D01*
X104799332Y-61817077D01*
X105831640Y-61817077D01*
X105831640Y-61620790D01*
G37*
G36*
X105520329Y-61961344D02*
G01*
X105572795Y-61969065D01*
X105621528Y-61981933D01*
X105673663Y-62003451D01*
X105720716Y-62031975D01*
X105757247Y-62063438D01*
X105792911Y-62107686D01*
X105819659Y-62159018D01*
X105835138Y-62207207D01*
X105844425Y-62260314D01*
X105847521Y-62318341D01*
X105845004Y-62369796D01*
X105835962Y-62423804D01*
X105820344Y-62472694D01*
X105794913Y-62521577D01*
X105773400Y-62550564D01*
X105734783Y-62588287D01*
X105688550Y-62619100D01*
X105641060Y-62640689D01*
X105609296Y-62445146D01*
X105643018Y-62430885D01*
X105682005Y-62397501D01*
X105696625Y-62369681D01*
X105704586Y-62320326D01*
X105702824Y-62295707D01*
X105686915Y-62247753D01*
X105654460Y-62207170D01*
X105615248Y-62181081D01*
X105566535Y-62165255D01*
X105514007Y-62159773D01*
X105514007Y-62651111D01*
X105500007Y-62651277D01*
X105446280Y-62649988D01*
X105384236Y-62643982D01*
X105327875Y-62633093D01*
X105277197Y-62617320D01*
X105223884Y-62591948D01*
X105178755Y-62559544D01*
X105159198Y-62541018D01*
X105125854Y-62500288D01*
X105100206Y-62454655D01*
X105082252Y-62404120D01*
X105071992Y-62348681D01*
X105069944Y-62310400D01*
X105212255Y-62310400D01*
X105212648Y-62321501D01*
X105226388Y-62372228D01*
X105256922Y-62412390D01*
X105288707Y-62434700D01*
X105337469Y-62451171D01*
X105386953Y-62456313D01*
X105386953Y-62163247D01*
X105353272Y-62164964D01*
X105302993Y-62177410D01*
X105259156Y-62204440D01*
X105248163Y-62215270D01*
X105221232Y-62258608D01*
X105212255Y-62310400D01*
X105069944Y-62310400D01*
X105069320Y-62298737D01*
X105069730Y-62280512D01*
X105075881Y-62228232D01*
X105089412Y-62179546D01*
X105110323Y-62134454D01*
X105138616Y-62092956D01*
X105174288Y-62055053D01*
X105201724Y-62032487D01*
X105247590Y-62004279D01*
X105299108Y-61982841D01*
X105356280Y-61968173D01*
X105408241Y-61961121D01*
X105464128Y-61958771D01*
X105520329Y-61961344D01*
G37*
G36*
X105291664Y-63453383D02*
G01*
X105323427Y-63260073D01*
X105274975Y-63244130D01*
X105240296Y-63215654D01*
X105217623Y-63170333D01*
X105212255Y-63126072D01*
X105219863Y-63075321D01*
X105245273Y-63029714D01*
X105266352Y-63009193D01*
X105312135Y-62984327D01*
X105362375Y-62971660D01*
X105416689Y-62966201D01*
X105447254Y-62965518D01*
X105497205Y-62967071D01*
X105548138Y-62972808D01*
X105596663Y-62984541D01*
X105642794Y-63006972D01*
X105646519Y-63009689D01*
X105681904Y-63047261D01*
X105700957Y-63093347D01*
X105704586Y-63128802D01*
X105696583Y-63179548D01*
X105672575Y-63220121D01*
X105632135Y-63248987D01*
X105585101Y-63265405D01*
X105561652Y-63270496D01*
X105593415Y-63463061D01*
X105645513Y-63447288D01*
X105691721Y-63426243D01*
X105737319Y-63395736D01*
X105775224Y-63358343D01*
X105783498Y-63347919D01*
X105811508Y-63301732D01*
X105829452Y-63255364D01*
X105841269Y-63203439D01*
X105846958Y-63145956D01*
X105847521Y-63119620D01*
X105843901Y-63060980D01*
X105833039Y-63006963D01*
X105814937Y-62957571D01*
X105789593Y-62912802D01*
X105757009Y-62872657D01*
X105744539Y-62860302D01*
X105703053Y-62827497D01*
X105656019Y-62801479D01*
X105603436Y-62782248D01*
X105545305Y-62769805D01*
X105492623Y-62764620D01*
X105459165Y-62763772D01*
X105403541Y-62766141D01*
X105351903Y-62773247D01*
X105295200Y-62788029D01*
X105244237Y-62809632D01*
X105199014Y-62838058D01*
X105172055Y-62860799D01*
X105137141Y-62899592D01*
X105109451Y-62943200D01*
X105088984Y-62991625D01*
X105075741Y-63044865D01*
X105069722Y-63102920D01*
X105069320Y-63123342D01*
X105071957Y-63179863D01*
X105079865Y-63231087D01*
X105095359Y-63283145D01*
X105117739Y-63328285D01*
X105124410Y-63338489D01*
X105159812Y-63379882D01*
X105198927Y-63410711D01*
X105245238Y-63435926D01*
X105291664Y-63453383D01*
G37*
G36*
X105085202Y-63938021D02*
G01*
X105228137Y-63938021D01*
X105228137Y-63804020D01*
X105552222Y-63804020D01*
X105605773Y-63804383D01*
X105656020Y-63806292D01*
X105667116Y-63807742D01*
X105694164Y-63825361D01*
X105704586Y-63858365D01*
X105695672Y-63907392D01*
X105685727Y-63937277D01*
X105821713Y-63954151D01*
X105836407Y-63904953D01*
X105845001Y-63851533D01*
X105847521Y-63799305D01*
X105842930Y-63748806D01*
X105829158Y-63703519D01*
X105802036Y-63659200D01*
X105781761Y-63640985D01*
X105734784Y-63620165D01*
X105703097Y-63613440D01*
X105649931Y-63608787D01*
X105598493Y-63607454D01*
X105560907Y-63607236D01*
X105228137Y-63607236D01*
X105228137Y-63517157D01*
X105085202Y-63517157D01*
X105085202Y-63607236D01*
X104942267Y-63607236D01*
X104831096Y-63804020D01*
X105085202Y-63804020D01*
X105085202Y-63938021D01*
G37*
G36*
X105831640Y-64259376D02*
G01*
X105831640Y-64063337D01*
X105085202Y-64063337D01*
X105085202Y-64245480D01*
X105190666Y-64245480D01*
X105148999Y-64273717D01*
X105109831Y-64307671D01*
X105092647Y-64329355D01*
X105073170Y-64377438D01*
X105069320Y-64414471D01*
X105074974Y-64464023D01*
X105091933Y-64512180D01*
X105109521Y-64543509D01*
X105292160Y-64482712D01*
X105269005Y-64437765D01*
X105259900Y-64390648D01*
X105269518Y-64341926D01*
X105282234Y-64320670D01*
X105324206Y-64289748D01*
X105362883Y-64275754D01*
X105417905Y-64266430D01*
X105468644Y-64262511D01*
X105521870Y-64260400D01*
X105573088Y-64259520D01*
X105606815Y-64259376D01*
X105831640Y-64259376D01*
G37*
G36*
X104974031Y-64624406D02*
G01*
X104799332Y-64624406D01*
X104799332Y-64820693D01*
X104974031Y-64820693D01*
X104974031Y-64624406D01*
G37*
G36*
X105831640Y-64624406D02*
G01*
X105085202Y-64624406D01*
X105085202Y-64820693D01*
X105831640Y-64820693D01*
X105831640Y-64624406D01*
G37*
G36*
X105291664Y-65665895D02*
G01*
X105323427Y-65472585D01*
X105274975Y-65456642D01*
X105240296Y-65428166D01*
X105217623Y-65382845D01*
X105212255Y-65338584D01*
X105219863Y-65287833D01*
X105245273Y-65242225D01*
X105266352Y-65221705D01*
X105312135Y-65196839D01*
X105362375Y-65184172D01*
X105416689Y-65178713D01*
X105447254Y-65178030D01*
X105497205Y-65179583D01*
X105548138Y-65185320D01*
X105596663Y-65197053D01*
X105642794Y-65219484D01*
X105646519Y-65222201D01*
X105681904Y-65259773D01*
X105700957Y-65305859D01*
X105704586Y-65341313D01*
X105696583Y-65392060D01*
X105672575Y-65432633D01*
X105632135Y-65461499D01*
X105585101Y-65477917D01*
X105561652Y-65483008D01*
X105593415Y-65675573D01*
X105645513Y-65659800D01*
X105691721Y-65638755D01*
X105737319Y-65608248D01*
X105775224Y-65570855D01*
X105783498Y-65560431D01*
X105811508Y-65514244D01*
X105829452Y-65467876D01*
X105841269Y-65415951D01*
X105846958Y-65358468D01*
X105847521Y-65332132D01*
X105843901Y-65273492D01*
X105833039Y-65219475D01*
X105814937Y-65170083D01*
X105789593Y-65125314D01*
X105757009Y-65085169D01*
X105744539Y-65072814D01*
X105703053Y-65040009D01*
X105656019Y-65013991D01*
X105603436Y-64994760D01*
X105545305Y-64982317D01*
X105492623Y-64977132D01*
X105459165Y-64976284D01*
X105403541Y-64978653D01*
X105351903Y-64985759D01*
X105295200Y-65000540D01*
X105244237Y-65022144D01*
X105199014Y-65050570D01*
X105172055Y-65073311D01*
X105137141Y-65112104D01*
X105109451Y-65155712D01*
X105088984Y-65204137D01*
X105075741Y-65257377D01*
X105069722Y-65315432D01*
X105069320Y-65335854D01*
X105071957Y-65392375D01*
X105079865Y-65443599D01*
X105095359Y-65495656D01*
X105117739Y-65540797D01*
X105124410Y-65551001D01*
X105159812Y-65592394D01*
X105198927Y-65623223D01*
X105245238Y-65648438D01*
X105291664Y-65665895D01*
G37*
G36*
X105831640Y-66204382D02*
G01*
X104799332Y-66204382D01*
X104799332Y-66513578D01*
X105503584Y-66699194D01*
X104799332Y-66882826D01*
X104799332Y-67192518D01*
X105831640Y-67192518D01*
X105831640Y-67000697D01*
X105018946Y-67000697D01*
X105831640Y-66797462D01*
X105831640Y-66598693D01*
X105018946Y-66396202D01*
X105831640Y-66396202D01*
X105831640Y-66204382D01*
G37*
G36*
X105648539Y-67339214D02*
G01*
X105697832Y-67349076D01*
X105746386Y-67372282D01*
X105784491Y-67404191D01*
X105805911Y-67430645D01*
X105829732Y-67476706D01*
X105843582Y-67530422D01*
X105847521Y-67584596D01*
X105846640Y-67608698D01*
X105838685Y-67659003D01*
X105822458Y-67706686D01*
X105810282Y-67731433D01*
X105781242Y-67775626D01*
X105747020Y-67814384D01*
X105771091Y-67821332D01*
X105783169Y-67824737D01*
X105831640Y-67840191D01*
X105831640Y-68033997D01*
X105828312Y-68032400D01*
X105779962Y-68012284D01*
X105731635Y-67998760D01*
X105689387Y-67993013D01*
X105637907Y-67990076D01*
X105586715Y-67989330D01*
X105356431Y-67991563D01*
X105333038Y-67991332D01*
X105277588Y-67988455D01*
X105227257Y-67981288D01*
X105179996Y-67965259D01*
X105162536Y-67954145D01*
X105126411Y-67917762D01*
X105100587Y-67874932D01*
X105086908Y-67838718D01*
X105076191Y-67787929D01*
X105070817Y-67733851D01*
X105069320Y-67679638D01*
X105069518Y-67661862D01*
X105072484Y-67611862D01*
X105080444Y-67559835D01*
X105095472Y-67508693D01*
X105119943Y-67461761D01*
X105140846Y-67435828D01*
X105179398Y-67402620D01*
X105226586Y-67376243D01*
X105275782Y-67358531D01*
X105307545Y-67536455D01*
X105272219Y-67551611D01*
X105233348Y-67583852D01*
X105218929Y-67614060D01*
X105212255Y-67665741D01*
X105212279Y-67670532D01*
X105216958Y-67723987D01*
X105236822Y-67770957D01*
X105269702Y-67791988D01*
X105319208Y-67798998D01*
X105339308Y-67798998D01*
X105482243Y-67798998D01*
X105519218Y-67798998D01*
X105560179Y-67798089D01*
X105610041Y-67791306D01*
X105635678Y-67779511D01*
X105671582Y-67744653D01*
X105673613Y-67741640D01*
X105696335Y-67695271D01*
X105704586Y-67643408D01*
X105700608Y-67610198D01*
X105676297Y-67565240D01*
X105657419Y-67549014D01*
X105608552Y-67534470D01*
X105580728Y-67539879D01*
X105543040Y-67572933D01*
X105538065Y-67582147D01*
X105521982Y-67630195D01*
X105510781Y-67679638D01*
X105506698Y-67699362D01*
X105495333Y-67750299D01*
X105482243Y-67798998D01*
X105339308Y-67798998D01*
X105350832Y-67767173D01*
X105364352Y-67718763D01*
X105376864Y-67664527D01*
X105388194Y-67608419D01*
X105389441Y-67602091D01*
X105401256Y-67549352D01*
X105415626Y-67499639D01*
X105434598Y-67452332D01*
X105441605Y-67439184D01*
X105471929Y-67399089D01*
X105511277Y-67368209D01*
X105527203Y-67359559D01*
X105575406Y-67343138D01*
X105624930Y-67338182D01*
X105648539Y-67339214D01*
G37*
G36*
X105500188Y-68138652D02*
G01*
X105551625Y-68145073D01*
X105607291Y-68158650D01*
X105658278Y-68178782D01*
X105704586Y-68205469D01*
X105719972Y-68216600D01*
X105760172Y-68252913D01*
X105791439Y-68293604D01*
X105813773Y-68338676D01*
X105827173Y-68388127D01*
X105831640Y-68441957D01*
X105828968Y-68482712D01*
X105816250Y-68536002D01*
X105793060Y-68584899D01*
X105759396Y-68629403D01*
X105722205Y-68664052D01*
X105829406Y-68664052D01*
X105869266Y-68662967D01*
X105918492Y-68654870D01*
X105930578Y-68649493D01*
X105967626Y-68615911D01*
X105974203Y-68602958D01*
X105987246Y-68552904D01*
X105990456Y-68500769D01*
X105987943Y-68460231D01*
X105972589Y-68412675D01*
X105970957Y-68410219D01*
X105926929Y-68386867D01*
X105895166Y-68162787D01*
X105917500Y-68162291D01*
X105934799Y-68162982D01*
X105988307Y-68175274D01*
X106035417Y-68202929D01*
X106072346Y-68240955D01*
X106076101Y-68245994D01*
X106101855Y-68293999D01*
X106118130Y-68347225D01*
X106127429Y-68401184D01*
X106131900Y-68452027D01*
X106133391Y-68508213D01*
X106133308Y-68520578D01*
X106130898Y-68572861D01*
X106124307Y-68624508D01*
X106112298Y-68673482D01*
X106106773Y-68689386D01*
X106085335Y-68735400D01*
X106053983Y-68777705D01*
X106041666Y-68789527D01*
X105999895Y-68818053D01*
X105951496Y-68838502D01*
X105914692Y-68847947D01*
X105863314Y-68855347D01*
X105808779Y-68859058D01*
X105754216Y-68860091D01*
X105085202Y-68860091D01*
X105085202Y-68676459D01*
X105184214Y-68676459D01*
X105151115Y-68647367D01*
X105114201Y-68602689D01*
X105088282Y-68553403D01*
X105073502Y-68500024D01*
X105212255Y-68500024D01*
X105215962Y-68534688D01*
X105235422Y-68580809D01*
X105271563Y-68619881D01*
X105305033Y-68640726D01*
X105352103Y-68657057D01*
X105402315Y-68665246D01*
X105452713Y-68667526D01*
X105487839Y-68666314D01*
X105538217Y-68659335D01*
X105586328Y-68644068D01*
X105629149Y-68617896D01*
X105655204Y-68591700D01*
X105680330Y-68547231D01*
X105688705Y-68496550D01*
X105685926Y-68468247D01*
X105666022Y-68421039D01*
X105630637Y-68383641D01*
X105597416Y-68363665D01*
X105550032Y-68348014D01*
X105499013Y-68340167D01*
X105447502Y-68337982D01*
X105418678Y-68338695D01*
X105366752Y-68344403D01*
X105317457Y-68357646D01*
X105270323Y-68383641D01*
X105247697Y-68404902D01*
X105220421Y-68450623D01*
X105212255Y-68500024D01*
X105073502Y-68500024D01*
X105073360Y-68499510D01*
X105069320Y-68449650D01*
X105070868Y-68417014D01*
X105081020Y-68363167D01*
X105100649Y-68313476D01*
X105129753Y-68267941D01*
X105168333Y-68226562D01*
X105194466Y-68205566D01*
X105238842Y-68179321D01*
X105289430Y-68159375D01*
X105346230Y-68145728D01*
X105398307Y-68139167D01*
X105454699Y-68136980D01*
X105500188Y-68138652D01*
G37*
G36*
X106117509Y-69240010D02*
G01*
X105739327Y-69240010D01*
X105760347Y-69260485D01*
X105795057Y-69300336D01*
X105823202Y-69344977D01*
X105827548Y-69354474D01*
X105842866Y-69404903D01*
X105847521Y-69456397D01*
X105845001Y-69495854D01*
X105833004Y-69547918D01*
X105811128Y-69596278D01*
X105779373Y-69640932D01*
X105744290Y-69676259D01*
X105717122Y-69697545D01*
X105671498Y-69724154D01*
X105620029Y-69744376D01*
X105562715Y-69758212D01*
X105510488Y-69764864D01*
X105454202Y-69767082D01*
X105420848Y-69766290D01*
X105368389Y-69761452D01*
X105310603Y-69749840D01*
X105258454Y-69731895D01*
X105211940Y-69707616D01*
X105171062Y-69677003D01*
X105147217Y-69653875D01*
X105113137Y-69610470D01*
X105088794Y-69563337D01*
X105074189Y-69512476D01*
X105069320Y-69457886D01*
X105071476Y-69421734D01*
X105075227Y-69404782D01*
X105212255Y-69404782D01*
X105215129Y-69433894D01*
X105235713Y-69482290D01*
X105272308Y-69520420D01*
X105306211Y-69540939D01*
X105353919Y-69557015D01*
X105404828Y-69565076D01*
X105455939Y-69567320D01*
X105495532Y-69566212D01*
X105551319Y-69559826D01*
X105602957Y-69545856D01*
X105646519Y-69521909D01*
X105666253Y-69504153D01*
X105695003Y-69460054D01*
X105704586Y-69408256D01*
X105699581Y-69369903D01*
X105677335Y-69324078D01*
X105641308Y-69287406D01*
X105605342Y-69265802D01*
X105554535Y-69248875D01*
X105500178Y-69240387D01*
X105445517Y-69238024D01*
X105417495Y-69238765D01*
X105366780Y-69244690D01*
X105318215Y-69258437D01*
X105271067Y-69285421D01*
X105245337Y-69310655D01*
X105220526Y-69354264D01*
X105212255Y-69404782D01*
X105075227Y-69404782D01*
X105082794Y-69370587D01*
X105103813Y-69323140D01*
X105119925Y-69297753D01*
X105152297Y-69259867D01*
X105194140Y-69226858D01*
X105085202Y-69226858D01*
X105085202Y-69043971D01*
X106117509Y-69043971D01*
X106117509Y-69240010D01*
G37*
G36*
X104974031Y-69917957D02*
G01*
X104799332Y-69917957D01*
X104799332Y-70114245D01*
X104974031Y-70114245D01*
X104974031Y-69917957D01*
G37*
G36*
X105831640Y-69917957D02*
G01*
X105085202Y-69917957D01*
X105085202Y-70114245D01*
X105831640Y-70114245D01*
X105831640Y-69917957D01*
G37*
G36*
X105520329Y-70258512D02*
G01*
X105572795Y-70266233D01*
X105621528Y-70279101D01*
X105673663Y-70300619D01*
X105720716Y-70329143D01*
X105757247Y-70360606D01*
X105792911Y-70404854D01*
X105819659Y-70456186D01*
X105835138Y-70504374D01*
X105844425Y-70557482D01*
X105847521Y-70615509D01*
X105845004Y-70666964D01*
X105835962Y-70720972D01*
X105820344Y-70769862D01*
X105794913Y-70818745D01*
X105773400Y-70847732D01*
X105734783Y-70885455D01*
X105688550Y-70916268D01*
X105641060Y-70937857D01*
X105609296Y-70742314D01*
X105643018Y-70728053D01*
X105682005Y-70694669D01*
X105696625Y-70666848D01*
X105704586Y-70617494D01*
X105702824Y-70592875D01*
X105686915Y-70544920D01*
X105654460Y-70504338D01*
X105615248Y-70478249D01*
X105566535Y-70462422D01*
X105514007Y-70456941D01*
X105514007Y-70948279D01*
X105500007Y-70948445D01*
X105446280Y-70947156D01*
X105384236Y-70941150D01*
X105327875Y-70930260D01*
X105277197Y-70914488D01*
X105223884Y-70889116D01*
X105178755Y-70856712D01*
X105159198Y-70838185D01*
X105125854Y-70797456D01*
X105100206Y-70751823D01*
X105082252Y-70701288D01*
X105071992Y-70645849D01*
X105069944Y-70607568D01*
X105212255Y-70607568D01*
X105212648Y-70618669D01*
X105226388Y-70669396D01*
X105256922Y-70709558D01*
X105288707Y-70731868D01*
X105337469Y-70748339D01*
X105386953Y-70753481D01*
X105386953Y-70460415D01*
X105353272Y-70462132D01*
X105302993Y-70474578D01*
X105259156Y-70501608D01*
X105248163Y-70512437D01*
X105221232Y-70555776D01*
X105212255Y-70607568D01*
X105069944Y-70607568D01*
X105069320Y-70595905D01*
X105069730Y-70577680D01*
X105075881Y-70525399D01*
X105089412Y-70476713D01*
X105110323Y-70431622D01*
X105138616Y-70390124D01*
X105174288Y-70352221D01*
X105201724Y-70329655D01*
X105247590Y-70301447D01*
X105299108Y-70280009D01*
X105356280Y-70265341D01*
X105408241Y-70258289D01*
X105464128Y-70255939D01*
X105520329Y-70258512D01*
G37*
G36*
X110740685Y-59611904D02*
G01*
X110724803Y-59812906D01*
X110775957Y-59826040D01*
X110823125Y-59847540D01*
X110863254Y-59879587D01*
X110869227Y-59886359D01*
X110895505Y-59929148D01*
X110910876Y-59981086D01*
X110915383Y-60036242D01*
X110912105Y-60088468D01*
X110900773Y-60137381D01*
X110876491Y-60183409D01*
X110873942Y-60186621D01*
X110834804Y-60221226D01*
X110786967Y-60236799D01*
X110776667Y-60237244D01*
X110727346Y-60224218D01*
X110715870Y-60215903D01*
X110685753Y-60174320D01*
X110672195Y-60141706D01*
X110657010Y-60092071D01*
X110643134Y-60041452D01*
X110630116Y-59991957D01*
X110626039Y-59976189D01*
X110612330Y-59926727D01*
X110594696Y-59873755D01*
X110575771Y-59827744D01*
X110552059Y-59782864D01*
X110522809Y-59743176D01*
X110483669Y-59706433D01*
X110440943Y-59678715D01*
X110394631Y-59660021D01*
X110344733Y-59650352D01*
X110314610Y-59648878D01*
X110261560Y-59654098D01*
X110210915Y-59669756D01*
X110166960Y-59693049D01*
X110127067Y-59724616D01*
X110093620Y-59763791D01*
X110066619Y-59810577D01*
X110061993Y-59820847D01*
X110044599Y-59870596D01*
X110033917Y-59919365D01*
X110027733Y-59972415D01*
X110026011Y-60022345D01*
X110028125Y-60080195D01*
X110034468Y-60133393D01*
X110045040Y-60181937D01*
X110063308Y-60234049D01*
X110087666Y-60279460D01*
X110112615Y-60312185D01*
X110153272Y-60350422D01*
X110199461Y-60379801D01*
X110251185Y-60400322D01*
X110299923Y-60410861D01*
X110343644Y-60414671D01*
X110343644Y-60207962D01*
X110292544Y-60193806D01*
X110248188Y-60166440D01*
X110234209Y-60151135D01*
X110211309Y-60104561D01*
X110201887Y-60051332D01*
X110200709Y-60020112D01*
X110204247Y-59967748D01*
X110216312Y-59918881D01*
X110236939Y-59879162D01*
X110278675Y-59848997D01*
X110299473Y-59846406D01*
X110346978Y-59863715D01*
X110360270Y-59877177D01*
X110385128Y-59922135D01*
X110402436Y-59969594D01*
X110418064Y-60022596D01*
X110429504Y-60067012D01*
X110443329Y-60120825D01*
X110457258Y-60169107D01*
X110473641Y-60218445D01*
X110492540Y-60265613D01*
X110504445Y-60290100D01*
X110531068Y-60332155D01*
X110566679Y-60371305D01*
X110608917Y-60403008D01*
X110658133Y-60426320D01*
X110709237Y-60439115D01*
X110760410Y-60443793D01*
X110772448Y-60443953D01*
X110826571Y-60439179D01*
X110878513Y-60424857D01*
X110928274Y-60400987D01*
X110937965Y-60395068D01*
X110978235Y-60364370D01*
X111012224Y-60327273D01*
X111039931Y-60283777D01*
X111052610Y-60256848D01*
X111069004Y-60209435D01*
X111080713Y-60156533D01*
X111087117Y-60105739D01*
X111089935Y-60050742D01*
X111090081Y-60034256D01*
X111087906Y-59975814D01*
X111081381Y-59921769D01*
X111070507Y-59872124D01*
X111051715Y-59818354D01*
X111026659Y-59770919D01*
X111000995Y-59736227D01*
X110964624Y-59700177D01*
X110922513Y-59670006D01*
X110874662Y-59645715D01*
X110821070Y-59627305D01*
X110772025Y-59616454D01*
X110740685Y-59611904D01*
G37*
G36*
X110327762Y-60950677D02*
G01*
X110470697Y-60950677D01*
X110470697Y-60816676D01*
X110794782Y-60816676D01*
X110848333Y-60817039D01*
X110898580Y-60818948D01*
X110909676Y-60820398D01*
X110936724Y-60838017D01*
X110947146Y-60871021D01*
X110938232Y-60920048D01*
X110928287Y-60949933D01*
X111064273Y-60966807D01*
X111078967Y-60917609D01*
X111087561Y-60864189D01*
X111090081Y-60811961D01*
X111085490Y-60761462D01*
X111071718Y-60716175D01*
X111044596Y-60671856D01*
X111024321Y-60653641D01*
X110977344Y-60632821D01*
X110945657Y-60626096D01*
X110892491Y-60621443D01*
X110841053Y-60620110D01*
X110803467Y-60619892D01*
X110470697Y-60619892D01*
X110470697Y-60529813D01*
X110327762Y-60529813D01*
X110327762Y-60619892D01*
X110184827Y-60619892D01*
X110073656Y-60816676D01*
X110327762Y-60816676D01*
X110327762Y-60950677D01*
G37*
G36*
X110762889Y-61029681D02*
G01*
X110815355Y-61037402D01*
X110864088Y-61050270D01*
X110916223Y-61071788D01*
X110963276Y-61100312D01*
X110999807Y-61131774D01*
X111035471Y-61176023D01*
X111062219Y-61227355D01*
X111077698Y-61275543D01*
X111086985Y-61328651D01*
X111090081Y-61386678D01*
X111087564Y-61438133D01*
X111078522Y-61492141D01*
X111062904Y-61541030D01*
X111037473Y-61589913D01*
X111015960Y-61618900D01*
X110977343Y-61656623D01*
X110931110Y-61687437D01*
X110883620Y-61709026D01*
X110851856Y-61513483D01*
X110885578Y-61499222D01*
X110924565Y-61465838D01*
X110939185Y-61438017D01*
X110947146Y-61388663D01*
X110945384Y-61364044D01*
X110929475Y-61316089D01*
X110897020Y-61275506D01*
X110857808Y-61249417D01*
X110809095Y-61233591D01*
X110756567Y-61228110D01*
X110756567Y-61719448D01*
X110742567Y-61719614D01*
X110688840Y-61718325D01*
X110626796Y-61712319D01*
X110570435Y-61701429D01*
X110519757Y-61685657D01*
X110466444Y-61660284D01*
X110421315Y-61627880D01*
X110401758Y-61609354D01*
X110368414Y-61568624D01*
X110342766Y-61522992D01*
X110324812Y-61472456D01*
X110314552Y-61417018D01*
X110312504Y-61378737D01*
X110454815Y-61378737D01*
X110455208Y-61389838D01*
X110468948Y-61440564D01*
X110499482Y-61480727D01*
X110531267Y-61503036D01*
X110580029Y-61519507D01*
X110629513Y-61524650D01*
X110629513Y-61231584D01*
X110595832Y-61233300D01*
X110545553Y-61245747D01*
X110501716Y-61272777D01*
X110490723Y-61283606D01*
X110463792Y-61326944D01*
X110454815Y-61378737D01*
X110312504Y-61378737D01*
X110311880Y-61367074D01*
X110312290Y-61348848D01*
X110318441Y-61296568D01*
X110331972Y-61247882D01*
X110352883Y-61202790D01*
X110381176Y-61161293D01*
X110416848Y-61123390D01*
X110444284Y-61100824D01*
X110490150Y-61072616D01*
X110541668Y-61051178D01*
X110598840Y-61036510D01*
X110650801Y-61029458D01*
X110706688Y-61027107D01*
X110762889Y-61029681D01*
G37*
G36*
X111360069Y-62065866D02*
G01*
X110981887Y-62065866D01*
X111002907Y-62086342D01*
X111037617Y-62126193D01*
X111065762Y-62170834D01*
X111070108Y-62180331D01*
X111085426Y-62230760D01*
X111090081Y-62282254D01*
X111087561Y-62321711D01*
X111075564Y-62373775D01*
X111053688Y-62422134D01*
X111021933Y-62466789D01*
X110986850Y-62502115D01*
X110959682Y-62523402D01*
X110914058Y-62550010D01*
X110862589Y-62570233D01*
X110805275Y-62584069D01*
X110753048Y-62590721D01*
X110696762Y-62592939D01*
X110663408Y-62592147D01*
X110610949Y-62587309D01*
X110553163Y-62575697D01*
X110501014Y-62557752D01*
X110454500Y-62533473D01*
X110413622Y-62502860D01*
X110389777Y-62479731D01*
X110355697Y-62436327D01*
X110331354Y-62389194D01*
X110316749Y-62338333D01*
X110311880Y-62283743D01*
X110314036Y-62247590D01*
X110317787Y-62230639D01*
X110454815Y-62230639D01*
X110457689Y-62259751D01*
X110478273Y-62308147D01*
X110514868Y-62346277D01*
X110548771Y-62366796D01*
X110596479Y-62382872D01*
X110647388Y-62390933D01*
X110698499Y-62393177D01*
X110738092Y-62392069D01*
X110793879Y-62385683D01*
X110845517Y-62371713D01*
X110889079Y-62347766D01*
X110908813Y-62330009D01*
X110937563Y-62285911D01*
X110947146Y-62234113D01*
X110942141Y-62195760D01*
X110919895Y-62149935D01*
X110883868Y-62113263D01*
X110847902Y-62091659D01*
X110797095Y-62074732D01*
X110742738Y-62066244D01*
X110688077Y-62063881D01*
X110660055Y-62064622D01*
X110609340Y-62070546D01*
X110560775Y-62084293D01*
X110513627Y-62111278D01*
X110487897Y-62136512D01*
X110463086Y-62180120D01*
X110454815Y-62230639D01*
X110317787Y-62230639D01*
X110325354Y-62196444D01*
X110346373Y-62148997D01*
X110362485Y-62123609D01*
X110394857Y-62085724D01*
X110436700Y-62052714D01*
X110327762Y-62052714D01*
X110327762Y-61869827D01*
X111360069Y-61869827D01*
X111360069Y-62065866D01*
G37*
G36*
X110867738Y-62674828D02*
G01*
X110835975Y-62871612D01*
X110883992Y-62890657D01*
X110918857Y-62922483D01*
X110940074Y-62968639D01*
X110947036Y-63021646D01*
X110947146Y-63030180D01*
X110943203Y-63081861D01*
X110927184Y-63131643D01*
X110919105Y-63144578D01*
X110874783Y-63169982D01*
X110866745Y-63170385D01*
X110829771Y-63156489D01*
X110808500Y-63108616D01*
X110803963Y-63090729D01*
X110791013Y-63034135D01*
X110778342Y-62982970D01*
X110762895Y-62926646D01*
X110747885Y-62878804D01*
X110727604Y-62826075D01*
X110708177Y-62789970D01*
X110675080Y-62751538D01*
X110630801Y-62721427D01*
X110579063Y-62705213D01*
X110540427Y-62702125D01*
X110488443Y-62708131D01*
X110441366Y-62726151D01*
X110399196Y-62756183D01*
X110377889Y-62778059D01*
X110349010Y-62821377D01*
X110330510Y-62867855D01*
X110318327Y-62922336D01*
X110312912Y-62975405D01*
X110311880Y-63014050D01*
X110313712Y-63068346D01*
X110320481Y-63124744D01*
X110332237Y-63173662D01*
X110351778Y-63220407D01*
X110363992Y-63240116D01*
X110397270Y-63278181D01*
X110438478Y-63308905D01*
X110487616Y-63332287D01*
X110518342Y-63342106D01*
X110550105Y-63156985D01*
X110502906Y-63135317D01*
X110479382Y-63111822D01*
X110459518Y-63065741D01*
X110454815Y-63017525D01*
X110457851Y-62965634D01*
X110471344Y-62915663D01*
X110476404Y-62906601D01*
X110516357Y-62884268D01*
X110551842Y-62903871D01*
X110572083Y-62951993D01*
X110586421Y-63001841D01*
X110600622Y-63058790D01*
X110607180Y-63087007D01*
X110621063Y-63142410D01*
X110636097Y-63191183D01*
X110655093Y-63239706D01*
X110678721Y-63284109D01*
X110694529Y-63305876D01*
X110735452Y-63340772D01*
X110786228Y-63361183D01*
X110840938Y-63367169D01*
X110896069Y-63360436D01*
X110946726Y-63340238D01*
X110987996Y-63310979D01*
X111016629Y-63282053D01*
X111045249Y-63240908D01*
X111066840Y-63191950D01*
X111079752Y-63143767D01*
X111087499Y-63089844D01*
X111090081Y-63030180D01*
X111087979Y-62975547D01*
X111081671Y-62925364D01*
X111068998Y-62872439D01*
X111050601Y-62825571D01*
X111030277Y-62790218D01*
X110997692Y-62749971D01*
X110959740Y-62717324D01*
X110916422Y-62692276D01*
X110867738Y-62674828D01*
G37*
G36*
X110327762Y-63874885D02*
G01*
X110470697Y-63874885D01*
X110470697Y-63740884D01*
X110794782Y-63740884D01*
X110848333Y-63741247D01*
X110898580Y-63743156D01*
X110909676Y-63744606D01*
X110936724Y-63762225D01*
X110947146Y-63795229D01*
X110938232Y-63844256D01*
X110928287Y-63874141D01*
X111064273Y-63891015D01*
X111078967Y-63841817D01*
X111087561Y-63788397D01*
X111090081Y-63736169D01*
X111085490Y-63685670D01*
X111071718Y-63640383D01*
X111044596Y-63596065D01*
X111024321Y-63577849D01*
X110977344Y-63557030D01*
X110945657Y-63550304D01*
X110892491Y-63545651D01*
X110841053Y-63544318D01*
X110803467Y-63544100D01*
X110470697Y-63544100D01*
X110470697Y-63454022D01*
X110327762Y-63454022D01*
X110327762Y-63544100D01*
X110184827Y-63544100D01*
X110073656Y-63740884D01*
X110327762Y-63740884D01*
X110327762Y-63874885D01*
G37*
G36*
X110216591Y-64008390D02*
G01*
X110041892Y-64008390D01*
X110041892Y-64204678D01*
X110216591Y-64204678D01*
X110216591Y-64008390D01*
G37*
G36*
X111074200Y-64008390D02*
G01*
X110327762Y-64008390D01*
X110327762Y-64204678D01*
X111074200Y-64204678D01*
X111074200Y-64008390D01*
G37*
G36*
X110534224Y-65049879D02*
G01*
X110565987Y-64856570D01*
X110517535Y-64840626D01*
X110482856Y-64812151D01*
X110460183Y-64766829D01*
X110454815Y-64722568D01*
X110462423Y-64671817D01*
X110487833Y-64626210D01*
X110508912Y-64605689D01*
X110554695Y-64580824D01*
X110604935Y-64568156D01*
X110659249Y-64562697D01*
X110689814Y-64562015D01*
X110739765Y-64563568D01*
X110790698Y-64569305D01*
X110839223Y-64581037D01*
X110885354Y-64603468D01*
X110889079Y-64606185D01*
X110924464Y-64643757D01*
X110943517Y-64689843D01*
X110947146Y-64725298D01*
X110939143Y-64776045D01*
X110915135Y-64816617D01*
X110874695Y-64845483D01*
X110827661Y-64861902D01*
X110804212Y-64866992D01*
X110835975Y-65059557D01*
X110888073Y-65043784D01*
X110934281Y-65022739D01*
X110979879Y-64992232D01*
X111017784Y-64954839D01*
X111026058Y-64944415D01*
X111054068Y-64898228D01*
X111072012Y-64851860D01*
X111083829Y-64799935D01*
X111089518Y-64742453D01*
X111090081Y-64716116D01*
X111086461Y-64657476D01*
X111075599Y-64603460D01*
X111057497Y-64554067D01*
X111032153Y-64509298D01*
X110999569Y-64469153D01*
X110987099Y-64456799D01*
X110945613Y-64423993D01*
X110898579Y-64397975D01*
X110845996Y-64378745D01*
X110787865Y-64366301D01*
X110735183Y-64361117D01*
X110701725Y-64360268D01*
X110646101Y-64362637D01*
X110594463Y-64369743D01*
X110537760Y-64384525D01*
X110486797Y-64406129D01*
X110441574Y-64434554D01*
X110414615Y-64457295D01*
X110379701Y-64496088D01*
X110352011Y-64539697D01*
X110331544Y-64588121D01*
X110318301Y-64641361D01*
X110312282Y-64699417D01*
X110311880Y-64719839D01*
X110314517Y-64776359D01*
X110322425Y-64827583D01*
X110337919Y-64879641D01*
X110360299Y-64924781D01*
X110366970Y-64934985D01*
X110402372Y-64976379D01*
X110441487Y-65007208D01*
X110487798Y-65032422D01*
X110534224Y-65049879D01*
G37*
G36*
X111074200Y-65187603D02*
G01*
X110041892Y-65187603D01*
X110041892Y-65383890D01*
X110590554Y-65383890D01*
X110327762Y-65613429D01*
X110327762Y-65854880D01*
X110600728Y-65601518D01*
X111074200Y-65872995D01*
X111074200Y-65661571D01*
X110737459Y-65475209D01*
X110835230Y-65383890D01*
X111074200Y-65383890D01*
X111074200Y-65187603D01*
G37*
G36*
X110804212Y-65963322D02*
G01*
X110629513Y-65963322D01*
X110629513Y-66348700D01*
X110804212Y-66348700D01*
X110804212Y-65963322D01*
G37*
G36*
X111074200Y-66809764D02*
G01*
X111073885Y-66845518D01*
X111073207Y-66899408D01*
X111072137Y-66954672D01*
X111070535Y-67006180D01*
X111067251Y-67058907D01*
X111059692Y-67103169D01*
X111043948Y-67151615D01*
X111018614Y-67197375D01*
X110997226Y-67223943D01*
X110958922Y-67258269D01*
X110913150Y-67285965D01*
X110879789Y-67300187D01*
X110828875Y-67313902D01*
X110776915Y-67318473D01*
X110765900Y-67318276D01*
X110713532Y-67311389D01*
X110665671Y-67294663D01*
X110622317Y-67268098D01*
X110610325Y-67258318D01*
X110575235Y-67220204D01*
X110547657Y-67173608D01*
X110529260Y-67124419D01*
X110512092Y-67155826D01*
X110479184Y-67196480D01*
X110437693Y-67229387D01*
X110406426Y-67246323D01*
X110356734Y-67262655D01*
X110303691Y-67268098D01*
X110278851Y-67266990D01*
X110228263Y-67256988D01*
X110182098Y-67236583D01*
X110168853Y-67228518D01*
X110127869Y-67196383D01*
X110095245Y-67158168D01*
X110087409Y-67146183D01*
X110065539Y-67101121D01*
X110052315Y-67051215D01*
X110048254Y-67022202D01*
X110044183Y-66970498D01*
X110042391Y-66920445D01*
X110041892Y-66870313D01*
X110041892Y-66667822D01*
X110216591Y-66667822D01*
X110216591Y-66786438D01*
X110216594Y-66795445D01*
X110216808Y-66852198D01*
X110217571Y-66908974D01*
X110220065Y-66963121D01*
X110228184Y-66998238D01*
X110256295Y-67040792D01*
X110283479Y-67057823D01*
X110333966Y-67067096D01*
X110371298Y-67062059D01*
X110414367Y-67036574D01*
X110437693Y-67003175D01*
X110451341Y-66953195D01*
X110453716Y-66910094D01*
X110454598Y-66857905D01*
X110454815Y-66803312D01*
X110454815Y-66667822D01*
X110629513Y-66667822D01*
X110629513Y-66834579D01*
X110629642Y-66860183D01*
X110630943Y-66913159D01*
X110634675Y-66967346D01*
X110644154Y-67017962D01*
X110656102Y-67044619D01*
X110690310Y-67082482D01*
X110718210Y-67096942D01*
X110767237Y-67104815D01*
X110807385Y-67100024D01*
X110853097Y-67075782D01*
X110875175Y-67049527D01*
X110893298Y-67000840D01*
X110897314Y-66962970D01*
X110899114Y-66909877D01*
X110899501Y-66859146D01*
X110899501Y-66667822D01*
X110629513Y-66667822D01*
X110454815Y-66667822D01*
X110216591Y-66667822D01*
X110041892Y-66667822D01*
X110041892Y-66461360D01*
X111074200Y-66461360D01*
X111074200Y-66809764D01*
G37*
G36*
X111074200Y-67673329D02*
G01*
X111074200Y-67477289D01*
X110327762Y-67477289D01*
X110327762Y-67659432D01*
X110433226Y-67659432D01*
X110391559Y-67687669D01*
X110352391Y-67721623D01*
X110335207Y-67743307D01*
X110315730Y-67791390D01*
X110311880Y-67828423D01*
X110317534Y-67877975D01*
X110334493Y-67926132D01*
X110352081Y-67957461D01*
X110534720Y-67896664D01*
X110511565Y-67851717D01*
X110502460Y-67804600D01*
X110512078Y-67755878D01*
X110524794Y-67734622D01*
X110566766Y-67703700D01*
X110605443Y-67689707D01*
X110660465Y-67680382D01*
X110711204Y-67676463D01*
X110764430Y-67674352D01*
X110815648Y-67673473D01*
X110849375Y-67673329D01*
X111074200Y-67673329D01*
G37*
G36*
X110762889Y-67983857D02*
G01*
X110815355Y-67991578D01*
X110864088Y-68004446D01*
X110916223Y-68025964D01*
X110963276Y-68054488D01*
X110999807Y-68085950D01*
X111035471Y-68130199D01*
X111062219Y-68181531D01*
X111077698Y-68229719D01*
X111086985Y-68282827D01*
X111090081Y-68340854D01*
X111087564Y-68392309D01*
X111078522Y-68446317D01*
X111062904Y-68495206D01*
X111037473Y-68544089D01*
X111015960Y-68573077D01*
X110977343Y-68610799D01*
X110931110Y-68641613D01*
X110883620Y-68663202D01*
X110851856Y-68467659D01*
X110885578Y-68453398D01*
X110924565Y-68420014D01*
X110939185Y-68392193D01*
X110947146Y-68342839D01*
X110945384Y-68318220D01*
X110929475Y-68270265D01*
X110897020Y-68229682D01*
X110857808Y-68203593D01*
X110809095Y-68187767D01*
X110756567Y-68182286D01*
X110756567Y-68673624D01*
X110742567Y-68673790D01*
X110688840Y-68672501D01*
X110626796Y-68666495D01*
X110570435Y-68655605D01*
X110519757Y-68639833D01*
X110466444Y-68614461D01*
X110421315Y-68582057D01*
X110401758Y-68563530D01*
X110368414Y-68522801D01*
X110342766Y-68477168D01*
X110324812Y-68426633D01*
X110314552Y-68371194D01*
X110312504Y-68332913D01*
X110454815Y-68332913D01*
X110455208Y-68344014D01*
X110468948Y-68394741D01*
X110499482Y-68434903D01*
X110531267Y-68457212D01*
X110580029Y-68473683D01*
X110629513Y-68478826D01*
X110629513Y-68185760D01*
X110595832Y-68187477D01*
X110545553Y-68199923D01*
X110501716Y-68226953D01*
X110490723Y-68237782D01*
X110463792Y-68281120D01*
X110454815Y-68332913D01*
X110312504Y-68332913D01*
X110311880Y-68321250D01*
X110312290Y-68303025D01*
X110318441Y-68250744D01*
X110331972Y-68202058D01*
X110352883Y-68156967D01*
X110381176Y-68115469D01*
X110416848Y-68077566D01*
X110444284Y-68055000D01*
X110490150Y-68026792D01*
X110541668Y-68005354D01*
X110598840Y-67990686D01*
X110650801Y-67983634D01*
X110706688Y-67981284D01*
X110762889Y-67983857D01*
G37*
G36*
X110891099Y-68778879D02*
G01*
X110940392Y-68788741D01*
X110988946Y-68811947D01*
X111027051Y-68843856D01*
X111048471Y-68870310D01*
X111072292Y-68916371D01*
X111086142Y-68970087D01*
X111090081Y-69024261D01*
X111089200Y-69048363D01*
X111081245Y-69098668D01*
X111065018Y-69146351D01*
X111052842Y-69171098D01*
X111023802Y-69215291D01*
X110989580Y-69254049D01*
X111013651Y-69260997D01*
X111025729Y-69264402D01*
X111074200Y-69279856D01*
X111074200Y-69473662D01*
X111070872Y-69472065D01*
X111022522Y-69451949D01*
X110974195Y-69438425D01*
X110931947Y-69432678D01*
X110880467Y-69429741D01*
X110829275Y-69428995D01*
X110598991Y-69431228D01*
X110575598Y-69430997D01*
X110520148Y-69428120D01*
X110469817Y-69420953D01*
X110422556Y-69404924D01*
X110405096Y-69393810D01*
X110368971Y-69357427D01*
X110343147Y-69314598D01*
X110329468Y-69278383D01*
X110318751Y-69227594D01*
X110313377Y-69173516D01*
X110311880Y-69119303D01*
X110312078Y-69101527D01*
X110315044Y-69051527D01*
X110323004Y-68999500D01*
X110338032Y-68948358D01*
X110362503Y-68901427D01*
X110383406Y-68875493D01*
X110421958Y-68842285D01*
X110469146Y-68815908D01*
X110518342Y-68798196D01*
X110550105Y-68976120D01*
X110514779Y-68991276D01*
X110475908Y-69023517D01*
X110461489Y-69053725D01*
X110454815Y-69105406D01*
X110454839Y-69110197D01*
X110459518Y-69163652D01*
X110479382Y-69210622D01*
X110512262Y-69231653D01*
X110561768Y-69238663D01*
X110581868Y-69238663D01*
X110724803Y-69238663D01*
X110761778Y-69238663D01*
X110802739Y-69237754D01*
X110852601Y-69230971D01*
X110878238Y-69219176D01*
X110914142Y-69184318D01*
X110916173Y-69181305D01*
X110938895Y-69134936D01*
X110947146Y-69083073D01*
X110943168Y-69049863D01*
X110918857Y-69004905D01*
X110899979Y-68988679D01*
X110851112Y-68974135D01*
X110823288Y-68979544D01*
X110785600Y-69012598D01*
X110780625Y-69021812D01*
X110764542Y-69069860D01*
X110753341Y-69119303D01*
X110749258Y-69139027D01*
X110737893Y-69189964D01*
X110724803Y-69238663D01*
X110581868Y-69238663D01*
X110593392Y-69206838D01*
X110606912Y-69158428D01*
X110619424Y-69104192D01*
X110630754Y-69048084D01*
X110632001Y-69041756D01*
X110643816Y-68989017D01*
X110658186Y-68939304D01*
X110677158Y-68891997D01*
X110684165Y-68878849D01*
X110714489Y-68838754D01*
X110753837Y-68807874D01*
X110769763Y-68799224D01*
X110817966Y-68782803D01*
X110867490Y-68777847D01*
X110891099Y-68778879D01*
G37*
G36*
X111074200Y-69613619D02*
G01*
X110041892Y-69613619D01*
X110041892Y-69809906D01*
X110590554Y-69809906D01*
X110327762Y-70039446D01*
X110327762Y-70280896D01*
X110600728Y-70027535D01*
X111074200Y-70299011D01*
X111074200Y-70087587D01*
X110737459Y-69901226D01*
X110835230Y-69809906D01*
X111074200Y-69809906D01*
X111074200Y-69613619D01*
G37*
G36*
X110706443Y-70366697D02*
G01*
X110759642Y-70370317D01*
X110809112Y-70378544D01*
X110861085Y-70393588D01*
X110908187Y-70414650D01*
X110940178Y-70434256D01*
X110982505Y-70469488D01*
X111018040Y-70511708D01*
X111043925Y-70555103D01*
X111064118Y-70601972D01*
X111078542Y-70650021D01*
X111087196Y-70699248D01*
X111090081Y-70749653D01*
X111089647Y-70770000D01*
X111083133Y-70828410D01*
X111068802Y-70882877D01*
X111046655Y-70933401D01*
X111016691Y-70979982D01*
X110978910Y-71022619D01*
X110957559Y-71042043D01*
X110911822Y-71075160D01*
X110862036Y-71100634D01*
X110808203Y-71118466D01*
X110750322Y-71128655D01*
X110698996Y-71131309D01*
X110668053Y-71130365D01*
X110618750Y-71124593D01*
X110563329Y-71110743D01*
X110511991Y-71089337D01*
X110464735Y-71060376D01*
X110421563Y-71023860D01*
X110401962Y-71003179D01*
X110368543Y-70958610D01*
X110342836Y-70909767D01*
X110324841Y-70856650D01*
X110314558Y-70799257D01*
X110311919Y-70748909D01*
X110454815Y-70748909D01*
X110459840Y-70790078D01*
X110482174Y-70838862D01*
X110518342Y-70877451D01*
X110548639Y-70897756D01*
X110595269Y-70916535D01*
X110643968Y-70926305D01*
X110699492Y-70929562D01*
X110735858Y-70928290D01*
X110788222Y-70920962D01*
X110838566Y-70904932D01*
X110883868Y-70877451D01*
X110914457Y-70846315D01*
X110939669Y-70798693D01*
X110947146Y-70748909D01*
X110942141Y-70707701D01*
X110919895Y-70658741D01*
X110883868Y-70619870D01*
X110853403Y-70599468D01*
X110806383Y-70580601D01*
X110757171Y-70570783D01*
X110700981Y-70567511D01*
X110665050Y-70568789D01*
X110613256Y-70576152D01*
X110563368Y-70592259D01*
X110518342Y-70619870D01*
X110487633Y-70651246D01*
X110462322Y-70699066D01*
X110454815Y-70748909D01*
X110311919Y-70748909D01*
X110311880Y-70748164D01*
X110314905Y-70695091D01*
X110323978Y-70644561D01*
X110339099Y-70596575D01*
X110360270Y-70551133D01*
X110379943Y-70519418D01*
X110415177Y-70477145D01*
X110457281Y-70441233D01*
X110500475Y-70414650D01*
X110535133Y-70398289D01*
X110582049Y-70381741D01*
X110635793Y-70370317D01*
X110690558Y-70366508D01*
X110706443Y-70366697D01*
G37*
G36*
X111074200Y-71768064D02*
G01*
X110963276Y-71768064D01*
X111004163Y-71734133D01*
X111037861Y-71693014D01*
X111056333Y-71661607D01*
X111075547Y-71615488D01*
X111087412Y-71563103D01*
X111090081Y-71522395D01*
X111085440Y-71468689D01*
X111071516Y-71419241D01*
X111057077Y-71388641D01*
X111025879Y-71345860D01*
X110985917Y-71313890D01*
X110964517Y-71302781D01*
X110913278Y-71286601D01*
X110860822Y-71278822D01*
X110806028Y-71276255D01*
X110799497Y-71276229D01*
X110327762Y-71276229D01*
X110327762Y-71472268D01*
X110674429Y-71472268D01*
X110729751Y-71472643D01*
X110783355Y-71474029D01*
X110834967Y-71477312D01*
X110869475Y-71482939D01*
X110913279Y-71507736D01*
X110926302Y-71522395D01*
X110945111Y-71569129D01*
X110947146Y-71595103D01*
X110939232Y-71645421D01*
X110919105Y-71684933D01*
X110883319Y-71721871D01*
X110849623Y-71739526D01*
X110795888Y-71749006D01*
X110743074Y-71752437D01*
X110684521Y-71753939D01*
X110645891Y-71754167D01*
X110327762Y-71754167D01*
X110327762Y-71950206D01*
X111074200Y-71950206D01*
X111074200Y-71768064D01*
G37*
G36*
X110327762Y-72488694D02*
G01*
X110470697Y-72488694D01*
X110470697Y-72354692D01*
X110794782Y-72354692D01*
X110848333Y-72355056D01*
X110898580Y-72356964D01*
X110909676Y-72358414D01*
X110936724Y-72376033D01*
X110947146Y-72409037D01*
X110938232Y-72458064D01*
X110928287Y-72487949D01*
X111064273Y-72504823D01*
X111078967Y-72455626D01*
X111087561Y-72402205D01*
X111090081Y-72349977D01*
X111085490Y-72299479D01*
X111071718Y-72254191D01*
X111044596Y-72209873D01*
X111024321Y-72191657D01*
X110977344Y-72170838D01*
X110945657Y-72164112D01*
X110892491Y-72159460D01*
X110841053Y-72158127D01*
X110803467Y-72157909D01*
X110470697Y-72157909D01*
X110470697Y-72067830D01*
X110327762Y-72067830D01*
X110327762Y-72157909D01*
X110184827Y-72157909D01*
X110073656Y-72354692D01*
X110327762Y-72354692D01*
X110327762Y-72488694D01*
G37*
G36*
X112781080Y-61601824D02*
G01*
X112034642Y-61303050D01*
X112034642Y-61509015D01*
X112415553Y-61648476D01*
X112542855Y-61688925D01*
X112495163Y-61704434D01*
X112478832Y-61709273D01*
X112431420Y-61724627D01*
X112415553Y-61730118D01*
X112034642Y-61871067D01*
X112034642Y-62072814D01*
X112781080Y-61778259D01*
X112781080Y-61601824D01*
G37*
G36*
X112781080Y-62649020D02*
G01*
X112781080Y-62452981D01*
X112034146Y-62452981D01*
X112072561Y-62411335D01*
X112107032Y-62366985D01*
X112137561Y-62319930D01*
X112164146Y-62270171D01*
X112186788Y-62217708D01*
X112193459Y-62199619D01*
X112002879Y-62199619D01*
X111983211Y-62248851D01*
X111958134Y-62295399D01*
X111929976Y-62338554D01*
X111909574Y-62366376D01*
X111873654Y-62407879D01*
X111834881Y-62442310D01*
X111793253Y-62469669D01*
X111748772Y-62489955D01*
X111748772Y-62649020D01*
X112781080Y-62649020D01*
G37*
G36*
X112781080Y-62980053D02*
G01*
X112590500Y-62980053D01*
X112590500Y-63176340D01*
X112781080Y-63176340D01*
X112781080Y-62980053D01*
G37*
G36*
X112781080Y-63835180D02*
G01*
X112781080Y-63639141D01*
X112034146Y-63639141D01*
X112072561Y-63597495D01*
X112107032Y-63553145D01*
X112137561Y-63506091D01*
X112164146Y-63456332D01*
X112186788Y-63403868D01*
X112193459Y-63385779D01*
X112002879Y-63385779D01*
X111983211Y-63435012D01*
X111958134Y-63481559D01*
X111929976Y-63524714D01*
X111909574Y-63552537D01*
X111873654Y-63594040D01*
X111834881Y-63628471D01*
X111793253Y-63655829D01*
X111748772Y-63676116D01*
X111748772Y-63835180D01*
X112781080Y-63835180D01*
G37*
G36*
X112781080Y-64560029D02*
G01*
X111748772Y-64560029D01*
X111748772Y-64869224D01*
X112453024Y-65054841D01*
X111748772Y-65238473D01*
X111748772Y-65548165D01*
X112781080Y-65548165D01*
X112781080Y-65356344D01*
X111968386Y-65356344D01*
X112781080Y-65153109D01*
X112781080Y-64954340D01*
X111968386Y-64751849D01*
X112781080Y-64751849D01*
X112781080Y-64560029D01*
G37*
G36*
X112597979Y-65694861D02*
G01*
X112647272Y-65704723D01*
X112695826Y-65727929D01*
X112733931Y-65759837D01*
X112755351Y-65786292D01*
X112779172Y-65832352D01*
X112793022Y-65886069D01*
X112796961Y-65940243D01*
X112796080Y-65964345D01*
X112788125Y-66014649D01*
X112771898Y-66062333D01*
X112759722Y-66087079D01*
X112730682Y-66131272D01*
X112696460Y-66170030D01*
X112720531Y-66176979D01*
X112732609Y-66180384D01*
X112781080Y-66195838D01*
X112781080Y-66389644D01*
X112777752Y-66388047D01*
X112729402Y-66367931D01*
X112681075Y-66354406D01*
X112638827Y-66348660D01*
X112587347Y-66345723D01*
X112536155Y-66344977D01*
X112305871Y-66347210D01*
X112282478Y-66346979D01*
X112227028Y-66344102D01*
X112176697Y-66336935D01*
X112129436Y-66320906D01*
X112111976Y-66309792D01*
X112075851Y-66273409D01*
X112050027Y-66230579D01*
X112036348Y-66194365D01*
X112025631Y-66143576D01*
X112020257Y-66089498D01*
X112018760Y-66035285D01*
X112018958Y-66017509D01*
X112021924Y-65967508D01*
X112029884Y-65915482D01*
X112044912Y-65864339D01*
X112069383Y-65817408D01*
X112090286Y-65791475D01*
X112128838Y-65758267D01*
X112176026Y-65731889D01*
X112225222Y-65714178D01*
X112256985Y-65892102D01*
X112221659Y-65907258D01*
X112182788Y-65939498D01*
X112168369Y-65969707D01*
X112161695Y-66021388D01*
X112161719Y-66026179D01*
X112166398Y-66079634D01*
X112186262Y-66126604D01*
X112219142Y-66147635D01*
X112268648Y-66154645D01*
X112288748Y-66154645D01*
X112431683Y-66154645D01*
X112468658Y-66154645D01*
X112509619Y-66153736D01*
X112559481Y-66146952D01*
X112585118Y-66135158D01*
X112621022Y-66100300D01*
X112623053Y-66097286D01*
X112645775Y-66050918D01*
X112654026Y-65999055D01*
X112650048Y-65965845D01*
X112625737Y-65920887D01*
X112606859Y-65904660D01*
X112557992Y-65890116D01*
X112530168Y-65895525D01*
X112492480Y-65928580D01*
X112487505Y-65937793D01*
X112471422Y-65985842D01*
X112460221Y-66035285D01*
X112456138Y-66055009D01*
X112444773Y-66105946D01*
X112431683Y-66154645D01*
X112288748Y-66154645D01*
X112300272Y-66122820D01*
X112313792Y-66074410D01*
X112326304Y-66020174D01*
X112337634Y-65964065D01*
X112338881Y-65957738D01*
X112350696Y-65904999D01*
X112365066Y-65855286D01*
X112384038Y-65807979D01*
X112391045Y-65794830D01*
X112421369Y-65754736D01*
X112460717Y-65723855D01*
X112476643Y-65715205D01*
X112524846Y-65698785D01*
X112574370Y-65693829D01*
X112597979Y-65694861D01*
G37*
G36*
X112034642Y-66443741D02*
G01*
X112034642Y-66652436D01*
X112563203Y-66829863D01*
X112034642Y-67002824D01*
X112034642Y-67206060D01*
X112754031Y-66944261D01*
X112891507Y-66897608D01*
X112937240Y-66877008D01*
X112982338Y-66851182D01*
X112986548Y-66848226D01*
X113024197Y-66814619D01*
X113039653Y-66794626D01*
X113062512Y-66748799D01*
X113071416Y-66719933D01*
X113080323Y-66669516D01*
X113082831Y-66619680D01*
X113080432Y-66567128D01*
X113073234Y-66515558D01*
X113071912Y-66508756D01*
X112929722Y-66491386D01*
X112937949Y-66540406D01*
X112939896Y-66574516D01*
X112932483Y-66624106D01*
X112905508Y-66666770D01*
X112894981Y-66675514D01*
X112851195Y-66701400D01*
X112802115Y-66720078D01*
X112781080Y-66725888D01*
X112034642Y-66443741D01*
G37*
G36*
X112590500Y-68343335D02*
G01*
X112781080Y-68343335D01*
X112781080Y-67655709D01*
X112730519Y-67664084D01*
X112681323Y-67678042D01*
X112633492Y-67697584D01*
X112587026Y-67722710D01*
X112543994Y-67752350D01*
X112502555Y-67786054D01*
X112464810Y-67819992D01*
X112424145Y-67859249D01*
X112380560Y-67903825D01*
X112343590Y-67943316D01*
X112307214Y-67982295D01*
X112268665Y-68022449D01*
X112230727Y-68060166D01*
X112193080Y-68094211D01*
X112177577Y-68106103D01*
X112132561Y-68130751D01*
X112084266Y-68144616D01*
X112058465Y-68146551D01*
X112007323Y-68139806D01*
X111962951Y-68115581D01*
X111958460Y-68111314D01*
X111931159Y-68066310D01*
X111923471Y-68014039D01*
X111931540Y-67961905D01*
X111957937Y-67918556D01*
X111960197Y-67916267D01*
X112005315Y-67889008D01*
X112056798Y-67876858D01*
X112082287Y-67874330D01*
X112062931Y-67678787D01*
X112012752Y-67686039D01*
X111958663Y-67699555D01*
X111911257Y-67718324D01*
X111864395Y-67746858D01*
X111826630Y-67782540D01*
X111821977Y-67788221D01*
X111793453Y-67830805D01*
X111771935Y-67877782D01*
X111757423Y-67929152D01*
X111749916Y-67984916D01*
X111748772Y-68018753D01*
X111751634Y-68073241D01*
X111760218Y-68123175D01*
X111777467Y-68175675D01*
X111802505Y-68221976D01*
X111830166Y-68256730D01*
X111867579Y-68290475D01*
X111915018Y-68318892D01*
X111967452Y-68336484D01*
X112017428Y-68342996D01*
X112032409Y-68343335D01*
X112083055Y-68339845D01*
X112131886Y-68329376D01*
X112163432Y-68318520D01*
X112210833Y-68295860D01*
X112255816Y-68267977D01*
X112293711Y-68240104D01*
X112333167Y-68205278D01*
X112370088Y-68168623D01*
X112408179Y-68128462D01*
X112423742Y-68111562D01*
X112458056Y-68074212D01*
X112494217Y-68035752D01*
X112530648Y-67999189D01*
X112536403Y-67993938D01*
X112575586Y-67963138D01*
X112590500Y-67953738D01*
X112590500Y-68343335D01*
G37*
G36*
X112289425Y-68471470D02*
G01*
X112342198Y-68472807D01*
X112407628Y-68477088D01*
X112467421Y-68484222D01*
X112521576Y-68494210D01*
X112581342Y-68510708D01*
X112632299Y-68531666D01*
X112681819Y-68562700D01*
X112695762Y-68574372D01*
X112732194Y-68612097D01*
X112760530Y-68653888D01*
X112780769Y-68699745D01*
X112792913Y-68749667D01*
X112796961Y-68803654D01*
X112794398Y-68848434D01*
X112784558Y-68897963D01*
X112763749Y-68949948D01*
X112732894Y-68995686D01*
X112691993Y-69035179D01*
X112648136Y-69064132D01*
X112596281Y-69088177D01*
X112549039Y-69103881D01*
X112496679Y-69116443D01*
X112439201Y-69125865D01*
X112376605Y-69132147D01*
X112326300Y-69134797D01*
X112273115Y-69135680D01*
X112237284Y-69135290D01*
X112185967Y-69133244D01*
X112122075Y-69127789D01*
X112063365Y-69119216D01*
X112009834Y-69107526D01*
X111950205Y-69088529D01*
X111898670Y-69064662D01*
X111855229Y-69035923D01*
X111819050Y-69002202D01*
X111786303Y-68957127D01*
X111763743Y-68905877D01*
X111752515Y-68857034D01*
X111748772Y-68803654D01*
X111923471Y-68803654D01*
X111924851Y-68820901D01*
X111945556Y-68866685D01*
X111984142Y-68894889D01*
X112033153Y-68912592D01*
X112061474Y-68918749D01*
X112111205Y-68924976D01*
X112165941Y-68928567D01*
X112221194Y-68930265D01*
X112273115Y-68930707D01*
X112315262Y-68930389D01*
X112372521Y-68928720D01*
X112422626Y-68925620D01*
X112472040Y-68920195D01*
X112521266Y-68910359D01*
X112559000Y-68897192D01*
X112600178Y-68867181D01*
X112609840Y-68852695D01*
X112622263Y-68803654D01*
X112620914Y-68786392D01*
X112600674Y-68740376D01*
X112562367Y-68712372D01*
X112513573Y-68694716D01*
X112485159Y-68688560D01*
X112435304Y-68682333D01*
X112380459Y-68678742D01*
X112325114Y-68677043D01*
X112273115Y-68676601D01*
X112231015Y-68676919D01*
X112173767Y-68678588D01*
X112123604Y-68681688D01*
X112074034Y-68687113D01*
X112024468Y-68696949D01*
X111986733Y-68710117D01*
X111945556Y-68740128D01*
X111935894Y-68754613D01*
X111923471Y-68803654D01*
X111748772Y-68803654D01*
X111751335Y-68758803D01*
X111761176Y-68709204D01*
X111781985Y-68657160D01*
X111812840Y-68611386D01*
X111853740Y-68571881D01*
X111897562Y-68542928D01*
X111949307Y-68518883D01*
X111996409Y-68503180D01*
X112048583Y-68490617D01*
X112105828Y-68481195D01*
X112168145Y-68474914D01*
X112218211Y-68472264D01*
X112271130Y-68471380D01*
X112289425Y-68471470D01*
G37*
G36*
X112590500Y-69925544D02*
G01*
X112781080Y-69925544D01*
X112781080Y-69237918D01*
X112730519Y-69246293D01*
X112681323Y-69260252D01*
X112633492Y-69279793D01*
X112587026Y-69304919D01*
X112543994Y-69334559D01*
X112502555Y-69368263D01*
X112464810Y-69402201D01*
X112424145Y-69441458D01*
X112380560Y-69486034D01*
X112343590Y-69525525D01*
X112307214Y-69564504D01*
X112268665Y-69604658D01*
X112230727Y-69642375D01*
X112193080Y-69676420D01*
X112177577Y-69688312D01*
X112132561Y-69712960D01*
X112084266Y-69726825D01*
X112058465Y-69728760D01*
X112007323Y-69722015D01*
X111962951Y-69697790D01*
X111958460Y-69693523D01*
X111931159Y-69648519D01*
X111923471Y-69596248D01*
X111931540Y-69544114D01*
X111957937Y-69500765D01*
X111960197Y-69498476D01*
X112005315Y-69471217D01*
X112056798Y-69459068D01*
X112082287Y-69456539D01*
X112062931Y-69260996D01*
X112012752Y-69268248D01*
X111958663Y-69281764D01*
X111911257Y-69300533D01*
X111864395Y-69329067D01*
X111826630Y-69364749D01*
X111821977Y-69370430D01*
X111793453Y-69413014D01*
X111771935Y-69459991D01*
X111757423Y-69511361D01*
X111749916Y-69567125D01*
X111748772Y-69600963D01*
X111751634Y-69655450D01*
X111760218Y-69705384D01*
X111777467Y-69757884D01*
X111802505Y-69804185D01*
X111830166Y-69838939D01*
X111867579Y-69872684D01*
X111915018Y-69901102D01*
X111967452Y-69918693D01*
X112017428Y-69925205D01*
X112032409Y-69925544D01*
X112083055Y-69922054D01*
X112131886Y-69911585D01*
X112163432Y-69900729D01*
X112210833Y-69878069D01*
X112255816Y-69850186D01*
X112293711Y-69822313D01*
X112333167Y-69787487D01*
X112370088Y-69750832D01*
X112408179Y-69710671D01*
X112423742Y-69693771D01*
X112458056Y-69656421D01*
X112494217Y-69617961D01*
X112530648Y-69581398D01*
X112536403Y-69576147D01*
X112575586Y-69545347D01*
X112590500Y-69535947D01*
X112590500Y-69925544D01*
G37*
G36*
X112574618Y-70438719D02*
G01*
X112781080Y-70438719D01*
X112781080Y-70628555D01*
X112574618Y-70628555D01*
X112574618Y-70755608D01*
X112399920Y-70755608D01*
X112399920Y-70628555D01*
X111764654Y-70628555D01*
X111764654Y-70464031D01*
X111800917Y-70438719D01*
X112063428Y-70438719D01*
X112399920Y-70438719D01*
X112399920Y-70203721D01*
X112063428Y-70438719D01*
X111800917Y-70438719D01*
X112400664Y-70020089D01*
X112574618Y-70020089D01*
X112574618Y-70438719D01*
G37*
D11*
X102534819Y-77136666D02*
X103249104Y-77136666D01*
X103249104Y-77136666D02*
X103391961Y-77089047D01*
X103391961Y-77089047D02*
X103487200Y-76993809D01*
X103487200Y-76993809D02*
X103534819Y-76850952D01*
X103534819Y-76850952D02*
X103534819Y-76755714D01*
X102868152Y-78041428D02*
X103534819Y-78041428D01*
X102487200Y-77803333D02*
X103201485Y-77565238D01*
X103201485Y-77565238D02*
X103201485Y-78184285D01*
D12*
%TO.C,J4*%
X104080000Y-77470000D02*
X104080000Y-76140000D01*
X104080000Y-76140000D02*
X105410000Y-76140000D01*
X109280000Y-76140000D02*
X106680000Y-76140000D01*
X106680000Y-78800000D02*
X106680000Y-76140000D01*
X109280000Y-78800000D02*
X109280000Y-76140000D01*
X109280000Y-78800000D02*
X106680000Y-78800000D01*
%TO.C,J2*%
X101540000Y-78800000D02*
X101540000Y-60960000D01*
X101540000Y-78800000D02*
X104200000Y-78800000D01*
X101540000Y-60960000D02*
X104200000Y-60960000D01*
X104200000Y-78800000D02*
X104200000Y-60960000D01*
X104200000Y-58360000D02*
X104200000Y-59690000D01*
X102870000Y-58360000D02*
X104200000Y-58360000D01*
%TO.C,J1*%
X114240000Y-78800000D02*
X114240000Y-60960000D01*
X114240000Y-78800000D02*
X116900000Y-78800000D01*
X114240000Y-60960000D02*
X116900000Y-60960000D01*
X116900000Y-78800000D02*
X116900000Y-60960000D01*
X116900000Y-58360000D02*
X116900000Y-59690000D01*
X115570000Y-58360000D02*
X116900000Y-58360000D01*
%TD*%
M02*
