%TF.GenerationSoftware,KiCad,Pcbnew,8.0.1*%
%TF.CreationDate,2024-05-19T23:11:23-04:00*%
%TF.ProjectId,stepstick-breakout,73746570-7374-4696-936b-2d627265616b,rev?*%
%TF.SameCoordinates,Original*%
%TF.FileFunction,Copper,L2,Bot*%
%TF.FilePolarity,Positive*%
%FSLAX46Y46*%
G04 Gerber Fmt 4.6, Leading zero omitted, Abs format (unit mm)*
G04 Created by KiCad (PCBNEW 8.0.1) date 2024-05-19 23:11:23*
%MOMM*%
%LPD*%
G01*
G04 APERTURE LIST*
G04 Aperture macros list*
%AMRoundRect*
0 Rectangle with rounded corners*
0 $1 Rounding radius*
0 $2 $3 $4 $5 $6 $7 $8 $9 X,Y pos of 4 corners*
0 Add a 4 corners polygon primitive as box body*
4,1,4,$2,$3,$4,$5,$6,$7,$8,$9,$2,$3,0*
0 Add four circle primitives for the rounded corners*
1,1,$1+$1,$2,$3*
1,1,$1+$1,$4,$5*
1,1,$1+$1,$6,$7*
1,1,$1+$1,$8,$9*
0 Add four rect primitives between the rounded corners*
20,1,$1+$1,$2,$3,$4,$5,0*
20,1,$1+$1,$4,$5,$6,$7,0*
20,1,$1+$1,$6,$7,$8,$9,0*
20,1,$1+$1,$8,$9,$2,$3,0*%
G04 Aperture macros list end*
%TA.AperFunction,Conductor*%
%ADD10C,0.200000*%
%TD*%
%TA.AperFunction,ComponentPad*%
%ADD11RoundRect,0.264706X-0.760294X0.635294X-0.760294X-0.635294X0.760294X-0.635294X0.760294X0.635294X0*%
%TD*%
%TA.AperFunction,ComponentPad*%
%ADD12O,2.000000X1.750000*%
%TD*%
%TA.AperFunction,ComponentPad*%
%ADD13O,1.950000X1.700000*%
%TD*%
%TA.AperFunction,ComponentPad*%
%ADD14O,2.050000X1.800000*%
%TD*%
%TA.AperFunction,ComponentPad*%
%ADD15C,1.700000*%
%TD*%
%TA.AperFunction,ComponentPad*%
%ADD16O,1.700000X1.700000*%
%TD*%
%TA.AperFunction,ComponentPad*%
%ADD17R,1.700000X1.700000*%
%TD*%
G04 APERTURE END LIST*
%TO.N,/GND*%
D10*
X109474000Y-73914000D02*
X114046000Y-73914000D01*
X114046000Y-78486000D01*
X109474000Y-78486000D01*
X109474000Y-73914000D01*
%TA.AperFunction,Conductor*%
G36*
X109474000Y-73914000D02*
G01*
X114046000Y-73914000D01*
X114046000Y-78486000D01*
X109474000Y-78486000D01*
X109474000Y-73914000D01*
G37*
%TD.AperFunction*%
%TD*%
D11*
%TO.P,J3,1,Pin_1*%
%TO.N,/Dir*%
X107950000Y-60960000D03*
D12*
%TO.P,J3,2,Pin_2*%
%TO.N,/Step*%
X107950000Y-63460000D03*
D13*
%TO.P,J3,3,Pin_3*%
%TO.N,/En*%
X107950000Y-65960000D03*
%TO.P,J3,4,Pin_4*%
%TO.N,/DIAG*%
X107950000Y-68460000D03*
D12*
%TO.P,J3,5,Pin_5*%
%TO.N,/Vm*%
X107950000Y-70960000D03*
D14*
%TO.P,J3,6,Pin_6*%
%TO.N,/GND*%
X107950000Y-73460000D03*
%TD*%
D15*
%TO.P,J4,1,Pin_1*%
%TO.N,/DIAG*%
X105410000Y-77470000D03*
D16*
%TO.P,J4,2,Pin_2*%
%TO.N,/INDEX*%
X107950000Y-77470000D03*
%TD*%
%TO.P,J2,8,Pin_8*%
%TO.N,/En*%
X102870000Y-77470000D03*
%TO.P,J2,7,Pin_7*%
%TO.N,/MS2*%
X102870000Y-74930000D03*
%TO.P,J2,6,Pin_6*%
%TO.N,/MS1*%
X102870000Y-72390000D03*
%TO.P,J2,5,Pin_5*%
%TO.N,/SPREAD*%
X102870000Y-69850000D03*
%TO.P,J2,4,Pin_4*%
%TO.N,/PDN{slash}UART 2*%
X102870000Y-67310000D03*
%TO.P,J2,3,Pin_3*%
%TO.N,/PDN{slash}UART 1*%
X102870000Y-64770000D03*
%TO.P,J2,2,Pin_2*%
%TO.N,/Step*%
X102870000Y-62230000D03*
D17*
%TO.P,J2,1,Pin_1*%
%TO.N,/Dir*%
X102870000Y-59690000D03*
%TD*%
D16*
%TO.P,J1,8,Pin_8*%
%TO.N,/Vm*%
X115570000Y-77470000D03*
%TO.P,J1,7,Pin_7*%
%TO.N,/GND*%
X115570000Y-74930000D03*
%TO.P,J1,6,Pin_6*%
%TO.N,/Motor 2-B*%
X115570000Y-72390000D03*
%TO.P,J1,5,Pin_5*%
%TO.N,/Motor 2-A*%
X115570000Y-69850000D03*
%TO.P,J1,4,Pin_4*%
%TO.N,/Motor 1-A*%
X115570000Y-67310000D03*
%TO.P,J1,3,Pin_3*%
%TO.N,/Motor 1-B*%
X115570000Y-64770000D03*
%TO.P,J1,2,Pin_2*%
%TO.N,/Vio*%
X115570000Y-62230000D03*
D15*
%TO.P,J1,1,Pin_1*%
%TO.N,/GND*%
X115570000Y-59690000D03*
%TD*%
%TA.AperFunction,Conductor*%
%TO.N,/GND*%
G36*
X114299898Y-58940502D02*
G01*
X114346391Y-58994158D01*
X114356495Y-59064432D01*
X114347164Y-59097114D01*
X114281179Y-59247543D01*
X114281176Y-59247550D01*
X114225932Y-59465707D01*
X114207346Y-59690000D01*
X114225932Y-59914292D01*
X114281176Y-60132449D01*
X114281179Y-60132456D01*
X114371580Y-60338548D01*
X114375948Y-60345235D01*
X114375948Y-60345236D01*
X115070000Y-59651184D01*
X115070000Y-59755826D01*
X115104075Y-59882993D01*
X115169901Y-59997007D01*
X115262993Y-60090099D01*
X115377007Y-60155925D01*
X115504174Y-60190000D01*
X115608813Y-60190000D01*
X114917711Y-60881101D01*
X114917711Y-60881103D01*
X114989552Y-60919982D01*
X115039942Y-60969995D01*
X115055294Y-61039312D01*
X115030733Y-61105925D01*
X114982835Y-61144988D01*
X114951900Y-61159413D01*
X114775386Y-61283010D01*
X114775380Y-61283015D01*
X114623015Y-61435380D01*
X114623010Y-61435386D01*
X114499416Y-61611897D01*
X114408349Y-61807190D01*
X114408347Y-61807195D01*
X114352577Y-62015331D01*
X114333796Y-62230000D01*
X114352577Y-62444668D01*
X114408347Y-62652804D01*
X114408349Y-62652809D01*
X114499416Y-62848102D01*
X114590144Y-62977676D01*
X114623013Y-63024617D01*
X114775383Y-63176987D01*
X114951898Y-63300584D01*
X115081698Y-63361111D01*
X115134654Y-63385805D01*
X115187939Y-63432723D01*
X115207400Y-63501000D01*
X115186858Y-63568960D01*
X115134654Y-63614195D01*
X114951897Y-63699416D01*
X114775386Y-63823010D01*
X114775380Y-63823015D01*
X114623015Y-63975380D01*
X114623010Y-63975386D01*
X114499416Y-64151897D01*
X114408349Y-64347190D01*
X114408347Y-64347195D01*
X114352577Y-64555331D01*
X114333796Y-64770000D01*
X114352577Y-64984668D01*
X114408347Y-65192804D01*
X114408349Y-65192809D01*
X114499416Y-65388102D01*
X114568855Y-65487272D01*
X114623013Y-65564617D01*
X114775383Y-65716987D01*
X114951898Y-65840584D01*
X115116085Y-65917146D01*
X115134654Y-65925805D01*
X115187939Y-65972723D01*
X115207400Y-66041000D01*
X115186858Y-66108960D01*
X115134654Y-66154195D01*
X114951897Y-66239416D01*
X114775386Y-66363010D01*
X114775380Y-66363015D01*
X114623015Y-66515380D01*
X114623010Y-66515386D01*
X114499416Y-66691897D01*
X114408349Y-66887190D01*
X114408347Y-66887195D01*
X114352577Y-67095331D01*
X114333796Y-67310000D01*
X114352577Y-67524668D01*
X114408347Y-67732804D01*
X114408348Y-67732807D01*
X114499416Y-67928102D01*
X114623013Y-68104617D01*
X114775383Y-68256987D01*
X114951898Y-68380584D01*
X115116085Y-68457146D01*
X115134654Y-68465805D01*
X115187939Y-68512723D01*
X115207400Y-68581000D01*
X115186858Y-68648960D01*
X115134654Y-68694195D01*
X114951897Y-68779416D01*
X114775386Y-68903010D01*
X114775380Y-68903015D01*
X114623015Y-69055380D01*
X114623010Y-69055386D01*
X114499416Y-69231897D01*
X114408349Y-69427190D01*
X114408347Y-69427195D01*
X114352577Y-69635331D01*
X114333796Y-69850000D01*
X114352577Y-70064668D01*
X114408347Y-70272804D01*
X114408348Y-70272807D01*
X114499416Y-70468102D01*
X114623013Y-70644617D01*
X114775383Y-70796987D01*
X114951898Y-70920584D01*
X115116085Y-70997146D01*
X115134654Y-71005805D01*
X115187939Y-71052723D01*
X115207400Y-71121000D01*
X115186858Y-71188960D01*
X115134654Y-71234195D01*
X114951897Y-71319416D01*
X114775386Y-71443010D01*
X114775380Y-71443015D01*
X114623015Y-71595380D01*
X114623010Y-71595386D01*
X114499416Y-71771897D01*
X114408349Y-71967190D01*
X114408347Y-71967195D01*
X114352577Y-72175331D01*
X114333796Y-72390000D01*
X114352577Y-72604668D01*
X114384028Y-72722043D01*
X114408348Y-72812807D01*
X114499416Y-73008102D01*
X114623013Y-73184617D01*
X114775383Y-73336987D01*
X114951898Y-73460584D01*
X114975416Y-73471550D01*
X114982832Y-73475009D01*
X115036117Y-73521927D01*
X115055578Y-73590204D01*
X115035036Y-73658164D01*
X114989552Y-73700017D01*
X114824704Y-73789228D01*
X114824698Y-73789232D01*
X114647097Y-73927465D01*
X114494674Y-74093041D01*
X114371580Y-74281451D01*
X114281179Y-74487543D01*
X114281176Y-74487550D01*
X114265615Y-74548999D01*
X114265616Y-74549000D01*
X115243894Y-74549000D01*
X115169901Y-74622993D01*
X115104075Y-74737007D01*
X115070000Y-74864174D01*
X115070000Y-74995826D01*
X115104075Y-75122993D01*
X115169901Y-75237007D01*
X115243894Y-75311000D01*
X114265616Y-75311000D01*
X114281176Y-75372449D01*
X114281179Y-75372456D01*
X114371580Y-75578548D01*
X114494674Y-75766958D01*
X114647097Y-75932534D01*
X114824698Y-76070767D01*
X114824699Y-76070768D01*
X114989551Y-76159981D01*
X115039942Y-76209994D01*
X115055294Y-76279311D01*
X115030733Y-76345924D01*
X114982835Y-76384988D01*
X114951900Y-76399413D01*
X114775386Y-76523010D01*
X114775380Y-76523015D01*
X114623015Y-76675380D01*
X114623010Y-76675386D01*
X114499416Y-76851897D01*
X114408349Y-77047190D01*
X114408347Y-77047195D01*
X114352577Y-77255331D01*
X114333796Y-77470000D01*
X114352577Y-77684668D01*
X114408347Y-77892804D01*
X114408349Y-77892809D01*
X114486428Y-78060250D01*
X114497089Y-78130442D01*
X114468109Y-78195254D01*
X114408689Y-78234111D01*
X114372233Y-78239500D01*
X109147767Y-78239500D01*
X109079646Y-78219498D01*
X109033153Y-78165842D01*
X109023049Y-78095568D01*
X109033572Y-78060250D01*
X109052244Y-78020205D01*
X109111652Y-77892807D01*
X109167423Y-77684665D01*
X109186204Y-77470000D01*
X109167423Y-77255335D01*
X109111652Y-77047193D01*
X109020584Y-76851898D01*
X108896987Y-76675383D01*
X108744617Y-76523013D01*
X108568102Y-76399416D01*
X108372807Y-76308348D01*
X108372805Y-76308347D01*
X108372804Y-76308347D01*
X108164668Y-76252577D01*
X107950000Y-76233796D01*
X107735331Y-76252577D01*
X107527195Y-76308347D01*
X107527190Y-76308349D01*
X107331897Y-76399416D01*
X107155386Y-76523010D01*
X107155380Y-76523015D01*
X107003015Y-76675380D01*
X107003010Y-76675386D01*
X106879416Y-76851897D01*
X106794195Y-77034654D01*
X106747277Y-77087939D01*
X106679000Y-77107400D01*
X106611040Y-77086858D01*
X106565805Y-77034654D01*
X106557146Y-77016085D01*
X106480584Y-76851898D01*
X106356987Y-76675383D01*
X106204617Y-76523013D01*
X106028102Y-76399416D01*
X105832807Y-76308348D01*
X105832805Y-76308347D01*
X105832804Y-76308347D01*
X105624668Y-76252577D01*
X105410000Y-76233796D01*
X105195331Y-76252577D01*
X104987195Y-76308347D01*
X104987190Y-76308349D01*
X104791897Y-76399416D01*
X104615386Y-76523010D01*
X104615380Y-76523015D01*
X104463015Y-76675380D01*
X104463010Y-76675386D01*
X104339416Y-76851897D01*
X104254195Y-77034654D01*
X104207277Y-77087939D01*
X104139000Y-77107400D01*
X104071040Y-77086858D01*
X104025805Y-77034654D01*
X104017146Y-77016085D01*
X103940584Y-76851898D01*
X103816987Y-76675383D01*
X103664617Y-76523013D01*
X103488102Y-76399416D01*
X103305344Y-76314194D01*
X103252060Y-76267278D01*
X103232599Y-76199000D01*
X103253141Y-76131040D01*
X103305343Y-76085805D01*
X103488102Y-76000584D01*
X103664617Y-75876987D01*
X103816987Y-75724617D01*
X103940584Y-75548102D01*
X104031652Y-75352807D01*
X104087423Y-75144665D01*
X104106204Y-74930000D01*
X104087423Y-74715335D01*
X104031652Y-74507193D01*
X103940584Y-74311898D01*
X103816987Y-74135383D01*
X103664617Y-73983013D01*
X103616358Y-73949222D01*
X103488102Y-73859416D01*
X103448609Y-73841000D01*
X106468335Y-73841000D01*
X106520153Y-74000480D01*
X106620772Y-74197956D01*
X106751039Y-74377253D01*
X106907746Y-74533960D01*
X107087043Y-74664227D01*
X107284514Y-74764843D01*
X107284516Y-74764844D01*
X107495292Y-74833330D01*
X107495299Y-74833332D01*
X107569000Y-74845004D01*
X107569000Y-73841000D01*
X106468335Y-73841000D01*
X103448609Y-73841000D01*
X103305344Y-73774194D01*
X103252060Y-73727278D01*
X103232599Y-73659000D01*
X103253141Y-73591040D01*
X103305343Y-73545805D01*
X103488102Y-73460584D01*
X103664617Y-73336987D01*
X103816987Y-73184617D01*
X103890941Y-73079000D01*
X106468335Y-73079000D01*
X107588539Y-73079000D01*
X107529896Y-73137643D01*
X107460778Y-73257358D01*
X107425000Y-73390882D01*
X107425000Y-73529118D01*
X107460778Y-73662642D01*
X107529896Y-73782357D01*
X107627643Y-73880104D01*
X107747358Y-73949222D01*
X107880882Y-73985000D01*
X108019118Y-73985000D01*
X108152642Y-73949222D01*
X108272357Y-73880104D01*
X108311461Y-73841000D01*
X108331000Y-73841000D01*
X108331000Y-74845003D01*
X108404700Y-74833332D01*
X108404707Y-74833330D01*
X108615483Y-74764844D01*
X108615485Y-74764843D01*
X108812956Y-74664227D01*
X108992253Y-74533960D01*
X109148960Y-74377253D01*
X109279227Y-74197956D01*
X109379846Y-74000480D01*
X109431665Y-73841000D01*
X108331000Y-73841000D01*
X108311461Y-73841000D01*
X108370104Y-73782357D01*
X108439222Y-73662642D01*
X108475000Y-73529118D01*
X108475000Y-73390882D01*
X108439222Y-73257358D01*
X108370104Y-73137643D01*
X108311461Y-73079000D01*
X109431664Y-73079000D01*
X109379846Y-72919519D01*
X109279227Y-72722043D01*
X109148960Y-72542746D01*
X108992253Y-72386039D01*
X108812956Y-72255772D01*
X108770597Y-72234189D01*
X108718982Y-72185441D01*
X108701916Y-72116526D01*
X108724817Y-72049324D01*
X108753739Y-72019986D01*
X108893555Y-71918404D01*
X109033404Y-71778555D01*
X109149655Y-71618549D01*
X109239444Y-71442328D01*
X109300560Y-71254231D01*
X109331500Y-71058889D01*
X109331500Y-70861111D01*
X109300560Y-70665769D01*
X109239444Y-70477672D01*
X109149655Y-70301451D01*
X109033404Y-70141445D01*
X109033401Y-70141442D01*
X109033399Y-70141439D01*
X108893560Y-70001600D01*
X108893557Y-70001598D01*
X108893555Y-70001596D01*
X108733549Y-69885345D01*
X108582216Y-69808237D01*
X108530602Y-69759490D01*
X108513536Y-69690575D01*
X108536437Y-69623373D01*
X108582214Y-69583706D01*
X108720447Y-69513273D01*
X108877268Y-69399336D01*
X109014336Y-69262268D01*
X109128273Y-69105447D01*
X109216276Y-68932732D01*
X109276176Y-68748377D01*
X109306500Y-68556921D01*
X109306500Y-68363079D01*
X109276176Y-68171623D01*
X109216276Y-67987268D01*
X109128273Y-67814553D01*
X109014336Y-67657732D01*
X109014333Y-67657729D01*
X109014331Y-67657726D01*
X108877273Y-67520668D01*
X108877270Y-67520666D01*
X108877268Y-67520664D01*
X108720447Y-67406727D01*
X108554682Y-67322265D01*
X108503069Y-67273519D01*
X108486003Y-67204604D01*
X108508904Y-67137402D01*
X108554681Y-67097734D01*
X108720447Y-67013273D01*
X108877268Y-66899336D01*
X109014336Y-66762268D01*
X109128273Y-66605447D01*
X109216276Y-66432732D01*
X109276176Y-66248377D01*
X109306500Y-66056921D01*
X109306500Y-65863079D01*
X109276176Y-65671623D01*
X109216276Y-65487268D01*
X109128273Y-65314553D01*
X109014336Y-65157732D01*
X109014333Y-65157729D01*
X109014331Y-65157726D01*
X108877273Y-65020668D01*
X108877270Y-65020666D01*
X108877268Y-65020664D01*
X108791502Y-64958351D01*
X108720449Y-64906728D01*
X108582217Y-64836295D01*
X108530602Y-64787546D01*
X108513536Y-64718631D01*
X108536437Y-64651430D01*
X108582215Y-64611763D01*
X108733549Y-64534655D01*
X108893555Y-64418404D01*
X109033404Y-64278555D01*
X109149655Y-64118549D01*
X109239444Y-63942328D01*
X109300560Y-63754231D01*
X109331500Y-63558889D01*
X109331500Y-63361111D01*
X109300560Y-63165769D01*
X109239444Y-62977672D01*
X109149655Y-62801451D01*
X109033404Y-62641445D01*
X109033401Y-62641442D01*
X109033399Y-62641439D01*
X108893560Y-62501600D01*
X108893557Y-62501598D01*
X108893556Y-62501597D01*
X108893555Y-62501596D01*
X108819822Y-62448026D01*
X108776469Y-62391805D01*
X108770394Y-62321069D01*
X108803525Y-62258277D01*
X108858729Y-62225094D01*
X108968973Y-62193066D01*
X108968975Y-62193064D01*
X108968977Y-62193064D01*
X109039239Y-62151510D01*
X109109506Y-62109955D01*
X109224955Y-61994506D01*
X109308066Y-61853973D01*
X109353617Y-61697186D01*
X109356499Y-61660561D01*
X109356500Y-61660561D01*
X109356500Y-60259438D01*
X109356499Y-60259437D01*
X109353617Y-60222814D01*
X109308066Y-60066027D01*
X109308064Y-60066025D01*
X109308064Y-60066022D01*
X109224957Y-59925497D01*
X109224952Y-59925490D01*
X109109509Y-59810047D01*
X109109502Y-59810042D01*
X108968977Y-59726935D01*
X108812191Y-59681384D01*
X108812187Y-59681383D01*
X108812186Y-59681383D01*
X108812182Y-59681382D01*
X108812178Y-59681382D01*
X108775562Y-59678500D01*
X108775554Y-59678500D01*
X107124446Y-59678500D01*
X107124438Y-59678500D01*
X107087821Y-59681382D01*
X107087808Y-59681384D01*
X106931022Y-59726935D01*
X106790497Y-59810042D01*
X106790490Y-59810047D01*
X106675047Y-59925490D01*
X106675042Y-59925497D01*
X106591935Y-60066022D01*
X106546384Y-60222808D01*
X106546382Y-60222821D01*
X106543500Y-60259437D01*
X106543500Y-61660562D01*
X106546382Y-61697178D01*
X106546384Y-61697191D01*
X106591935Y-61853977D01*
X106675042Y-61994502D01*
X106675047Y-61994509D01*
X106790490Y-62109952D01*
X106790497Y-62109957D01*
X106931022Y-62193064D01*
X106931025Y-62193064D01*
X106931027Y-62193066D01*
X107041268Y-62225094D01*
X107101104Y-62263307D01*
X107130781Y-62327804D01*
X107120877Y-62398106D01*
X107080176Y-62448027D01*
X107006442Y-62501597D01*
X106866600Y-62641439D01*
X106866598Y-62641442D01*
X106750347Y-62801447D01*
X106660557Y-62977670D01*
X106660554Y-62977676D01*
X106599441Y-63165764D01*
X106599440Y-63165767D01*
X106599440Y-63165769D01*
X106568500Y-63361111D01*
X106568500Y-63558889D01*
X106599440Y-63754231D01*
X106660556Y-63942328D01*
X106750345Y-64118549D01*
X106866596Y-64278555D01*
X106866598Y-64278557D01*
X106866600Y-64278560D01*
X107006439Y-64418399D01*
X107006442Y-64418401D01*
X107006445Y-64418404D01*
X107166451Y-64534655D01*
X107317784Y-64611763D01*
X107369397Y-64660509D01*
X107386463Y-64729424D01*
X107363562Y-64796626D01*
X107317783Y-64836294D01*
X107179552Y-64906727D01*
X107022729Y-65020666D01*
X107022726Y-65020668D01*
X106885668Y-65157726D01*
X106885666Y-65157729D01*
X106771729Y-65314549D01*
X106683725Y-65487266D01*
X106683722Y-65487272D01*
X106623825Y-65671617D01*
X106623824Y-65671622D01*
X106623824Y-65671623D01*
X106593500Y-65863079D01*
X106593500Y-66056921D01*
X106607981Y-66148348D01*
X106623825Y-66248382D01*
X106683722Y-66432727D01*
X106683724Y-66432732D01*
X106771727Y-66605447D01*
X106885664Y-66762268D01*
X106885666Y-66762270D01*
X106885668Y-66762273D01*
X107022726Y-66899331D01*
X107022729Y-66899333D01*
X107022732Y-66899336D01*
X107179553Y-67013273D01*
X107345315Y-67097733D01*
X107396930Y-67146482D01*
X107413996Y-67215396D01*
X107391095Y-67282598D01*
X107345315Y-67322266D01*
X107200955Y-67395821D01*
X107179549Y-67406729D01*
X107022729Y-67520666D01*
X107022726Y-67520668D01*
X106885668Y-67657726D01*
X106885666Y-67657729D01*
X106771729Y-67814549D01*
X106683725Y-67987266D01*
X106683722Y-67987272D01*
X106623825Y-68171617D01*
X106623824Y-68171622D01*
X106623824Y-68171623D01*
X106593500Y-68363079D01*
X106593500Y-68556921D01*
X106623824Y-68748377D01*
X106623825Y-68748382D01*
X106674068Y-68903015D01*
X106683724Y-68932732D01*
X106771727Y-69105447D01*
X106885664Y-69262268D01*
X106885666Y-69262270D01*
X106885668Y-69262273D01*
X107022726Y-69399331D01*
X107022729Y-69399333D01*
X107022732Y-69399336D01*
X107179553Y-69513273D01*
X107317783Y-69583704D01*
X107369397Y-69632452D01*
X107386463Y-69701367D01*
X107363562Y-69768569D01*
X107317782Y-69808238D01*
X107166447Y-69885347D01*
X107006442Y-70001598D01*
X107006439Y-70001600D01*
X106866600Y-70141439D01*
X106866598Y-70141442D01*
X106750347Y-70301447D01*
X106660557Y-70477670D01*
X106660554Y-70477676D01*
X106599441Y-70665764D01*
X106599440Y-70665767D01*
X106599440Y-70665769D01*
X106568500Y-70861111D01*
X106568500Y-71058889D01*
X106596267Y-71234195D01*
X106599441Y-71254235D01*
X106620619Y-71319416D01*
X106660556Y-71442328D01*
X106750345Y-71618549D01*
X106866596Y-71778555D01*
X106866598Y-71778557D01*
X106866600Y-71778560D01*
X107006442Y-71918402D01*
X107146260Y-72019986D01*
X107189614Y-72076209D01*
X107195689Y-72146945D01*
X107162557Y-72209736D01*
X107129403Y-72234188D01*
X107087046Y-72255770D01*
X106907746Y-72386039D01*
X106751039Y-72542746D01*
X106620772Y-72722043D01*
X106520153Y-72919519D01*
X106468335Y-73079000D01*
X103890941Y-73079000D01*
X103940584Y-73008102D01*
X104031652Y-72812807D01*
X104087423Y-72604665D01*
X104106204Y-72390000D01*
X104087423Y-72175335D01*
X104031652Y-71967193D01*
X103940584Y-71771898D01*
X103816987Y-71595383D01*
X103664617Y-71443013D01*
X103488102Y-71319416D01*
X103305344Y-71234194D01*
X103252060Y-71187278D01*
X103232599Y-71119000D01*
X103253141Y-71051040D01*
X103305343Y-71005805D01*
X103488102Y-70920584D01*
X103664617Y-70796987D01*
X103816987Y-70644617D01*
X103940584Y-70468102D01*
X104031652Y-70272807D01*
X104087423Y-70064665D01*
X104106204Y-69850000D01*
X104087423Y-69635335D01*
X104031652Y-69427193D01*
X103940584Y-69231898D01*
X103816987Y-69055383D01*
X103664617Y-68903013D01*
X103488102Y-68779416D01*
X103305344Y-68694194D01*
X103252060Y-68647278D01*
X103232599Y-68579000D01*
X103253141Y-68511040D01*
X103305343Y-68465805D01*
X103488102Y-68380584D01*
X103664617Y-68256987D01*
X103816987Y-68104617D01*
X103940584Y-67928102D01*
X104031652Y-67732807D01*
X104087423Y-67524665D01*
X104106204Y-67310000D01*
X104087423Y-67095335D01*
X104031652Y-66887193D01*
X103940584Y-66691898D01*
X103816987Y-66515383D01*
X103664617Y-66363013D01*
X103488102Y-66239416D01*
X103305344Y-66154194D01*
X103252060Y-66107278D01*
X103232599Y-66039000D01*
X103253141Y-65971040D01*
X103305343Y-65925805D01*
X103488102Y-65840584D01*
X103664617Y-65716987D01*
X103816987Y-65564617D01*
X103940584Y-65388102D01*
X104031652Y-65192807D01*
X104087423Y-64984665D01*
X104106204Y-64770000D01*
X104087423Y-64555335D01*
X104031652Y-64347193D01*
X103940584Y-64151898D01*
X103816987Y-63975383D01*
X103664617Y-63823013D01*
X103488102Y-63699416D01*
X103305344Y-63614194D01*
X103252060Y-63567278D01*
X103232599Y-63499000D01*
X103253141Y-63431040D01*
X103305343Y-63385805D01*
X103488102Y-63300584D01*
X103664617Y-63176987D01*
X103816987Y-63024617D01*
X103940584Y-62848102D01*
X104031652Y-62652807D01*
X104087423Y-62444665D01*
X104106204Y-62230000D01*
X104087423Y-62015335D01*
X104031652Y-61807193D01*
X103940584Y-61611898D01*
X103816987Y-61435383D01*
X103664617Y-61283013D01*
X103639499Y-61265425D01*
X103488099Y-61159413D01*
X103483338Y-61156665D01*
X103484682Y-61154336D01*
X103439796Y-61114923D01*
X103420242Y-61046672D01*
X103440691Y-60978685D01*
X103494651Y-60932545D01*
X103546239Y-60921500D01*
X103756200Y-60921500D01*
X103756206Y-60921500D01*
X103830361Y-60910696D01*
X103944746Y-60854776D01*
X104034776Y-60764746D01*
X104090696Y-60650361D01*
X104101500Y-60576206D01*
X104101500Y-59046500D01*
X104121502Y-58978379D01*
X104175158Y-58931886D01*
X104227500Y-58920500D01*
X114231777Y-58920500D01*
X114299898Y-58940502D01*
G37*
%TD.AperFunction*%
%TD*%
M02*
